<?xml version="1.0" encoding="UTF-8"?>
<svg width="46px" height="46px" viewBox="0 0 46 46" version="1.1" xmlns="http://www.w3.org/2000/svg" xmlns:xlink="http://www.w3.org/1999/xlink">
    <!-- Generator: Sketch 55.2 (78181) - https://sketchapp.com -->
    <title>Artboard</title>
    <desc>Created with Sketch.</desc>
    <g id="Artboard" stroke="none" stroke-width="1" fill="none" fill-rule="evenodd">
        <rect fill="#000000" x="0" y="0" width="46" height="46"></rect>
        <rect id="Rectangle" stroke="#979797" fill="#D8D8D8" x="23.5" y="7.5" width="1" height="12"></rect>
        <g id="image" transform="translate(0.000000, -2.000000)" fill-rule="nonzero">
            <polygon id="Path" stroke="#FFFFFF" stroke-width="2.16" fill="#000000" points="0 0.0274611399 49.9544041 0.0274611399 49.9544041 49.9818653 0 49.9818653"></polygon>
            <path d="M9.44616352,21.1945469 L9.91352104,20.9240806 L9.85746342,20.8272148 L9.39010591,21.0976811 L9.44616352,21.1945469 Z M9.53930663,18.7089525 L9.89889212,19.1182789 L9.98297316,19.0444154 L9.62338767,18.635089 L9.53930663,18.7089525 Z M9.50831788,17.4173554 L9.86893964,17.8256455 L9.95282202,17.7515565 L9.59220026,17.3432664 L9.50831788,17.4173554 Z M9.64485098,22.4258115 L9.7614313,21.8864332 L9.65204021,21.8627896 L9.5354599,22.4021678 L9.64485098,22.4258115 Z M10.1905759,23.8640531 L10.1579334,23.3122396 L10.0462117,23.3188485 L10.0788541,23.870662 L10.1905759,23.8640531 Z M10.1929377,16.2078477 L10.2805024,16.7524073 L10.3910002,16.7346393 L10.3034354,16.1900797 L10.1929377,16.2078477 Z M10.4690242,24.8476768 L10.402703,24.3000084 L10.2915976,24.3134631 L10.3579188,24.8611315 L10.4690242,24.8476768 Z M10.6680374,15.2428985 L10.6260685,15.7936758 L10.7376621,15.8021792 L10.779631,15.251402 L10.6680374,15.2428985 Z M10.2717533,19.5888269 L10.7909243,19.7256145 L10.8194384,19.6173907 L10.3002674,19.4806032 L10.2717533,19.5888269 Z M10.9556142,25.4640431 L10.7955106,24.9371001 L10.6884272,24.9696357 L10.8485308,25.4965787 L10.9556142,25.4640431 Z M11.2719684,14.8063387 L10.7372534,14.8415719 L10.7446119,14.9532468 L11.2793269,14.9180136 L11.2719684,14.8063387 Z M11.168529,26.2432368 L10.9773373,25.7276927 L10.8724037,25.7666078 L11.0635954,26.2821518 L11.168529,26.2432368 Z M10.8606093,23.2318216 L11.1217492,22.7494381 L11.0233285,22.6961577 L10.7621886,23.1785411 L10.8606093,23.2318216 Z M10.7932575,21.2657428 L11.3284907,21.2906133 L11.3336855,21.1788168 L10.7984523,21.1539463 L10.7932575,21.2657428 Z M11.4585281,14.4908461 L11.1414297,14.0457683 L11.0502802,14.1107083 L11.3673786,14.5557861 L11.4585281,14.4908461 Z M11.4537889,26.7943155 L11.3724418,26.2502741 L11.2617551,26.2668244 L11.3431023,26.8108658 L11.4537889,26.7943155 Z M11.222985,16.5384547 L11.4680627,17.0296464 L11.5682067,16.9796801 L11.323129,16.4884883 L11.222985,16.5384547 Z M11.8054318,13.7674932 L11.2707168,13.8047989 L11.278506,13.9164446 L11.813221,13.8791389 L11.8054318,13.7674932 Z M11.7909724,27.2469998 L11.5557392,26.7511449 L11.4546235,26.7991141 L11.6898566,27.2949691 L11.7909724,27.2469998 Z M11.6025161,24.4442615 L11.5740187,23.8929662 L11.4622508,23.8987437 L11.4907482,24.450039 L11.6025161,24.4442615 Z M11.5591436,13.1636072 L11.8119934,13.6506538 L11.9113227,13.5990871 L11.658473,13.1120405 L11.5591436,13.1636072 Z M11.8716023,25.7581987 L11.7710841,25.2157117 L11.6610402,25.2361018 L11.7615583,25.7785889 L11.8716023,25.7581987 Z M11.8725082,27.8124808 L11.9491922,27.2689575 L11.8383726,27.2533223 L11.7616887,27.7968456 L11.8725082,27.8124808 Z M12.2907296,12.9723854 L11.7632685,12.8775667 L11.7434673,12.9877182 L12.2709284,13.0825369 L12.2907296,12.9723854 Z M12.1389736,15.5762012 L11.8954503,16.0679111 L11.9957415,16.1175811 L12.2392648,15.6258713 L12.1389736,15.5762012 Z M12.0283978,14.7999049 L11.9610403,15.3475733 L12.0721204,15.361235 L12.1394779,14.8135666 L12.0283978,14.7999049 Z M11.7158341,18.5555028 L12.1567667,18.8679381 L12.2214716,18.7766215 L11.780539,18.4641863 L11.7158341,18.5555028 Z M11.8109245,17.3265871 L12.243567,17.6519757 L12.3108372,17.5625321 L11.8781947,17.2371435 L11.8109245,17.3265871 Z M12.2355238,14.1976274 L11.9987362,14.6929641 L12.0997094,14.7412327 L12.3364969,14.245896 L12.2355238,14.1976274 Z M12.3922377,28.074437 L12.1316159,27.5920536 L12.0331509,27.6452521 L12.2937727,28.1276355 L12.3922377,28.074437 Z M12.564897,12.5882465 L12.0307002,12.5473138 L12.0221496,12.6589038 L12.5563465,12.6998364 L12.564897,12.5882465 Z M12.6586978,28.3853011 L12.1348636,28.2267519 L12.1024421,28.3338699 L12.6262763,28.4924191 L12.6586978,28.3853011 Z M12.4156104,23.441293 L12.4855586,22.8941427 L12.374545,22.8799506 L12.3045968,23.4271008 L12.4156104,23.441293 Z M12.5285073,26.9072268 L12.3803208,26.3766569 L12.272529,26.4067628 L12.4207155,26.9373327 L12.5285073,26.9072268 Z M12.673622,26.1085265 L12.3026376,25.7095627 L12.2206785,25.785774 L12.591663,26.1847378 L12.673622,26.1085265 Z M12.5101043,13.6310593 L12.236011,14.1051526 L12.3329009,14.1611687 L12.6069941,13.6870754 L12.5101043,13.6310593 Z M12.1801389,20.1139512 L12.6734031,20.3300134 L12.7183067,20.2274995 L12.2250425,20.0114374 L12.1801389,20.1139512 Z M12.2861083,12.0264848 L12.6301498,12.4498008 L12.7170005,12.3792147 L12.372959,11.9558987 L12.2861083,12.0264848 Z M12.5450598,25.2350956 L12.5590494,24.682764 L12.4471682,24.6799303 L12.4331785,25.2322619 L12.5450598,25.2350956 Z M12.8556576,13.2002072 L12.3929633,13.4779274 L12.45056,13.5738861 L12.9132543,13.2961659 L12.8556576,13.2002072 Z M12.7765274,28.9948561 L12.8174601,28.4487421 L12.705856,28.4403771 L12.6649234,28.9864911 L12.7765274,28.9948561 Z M12.3093664,21.7942819 L12.8404545,21.8683752 L12.8559185,21.7575316 L12.3248305,21.6834383 L12.3093664,21.7942819 Z M12.6325902,11.5253135 L12.7595332,12.062101 L12.8684461,12.0363446 L12.7415031,11.499557 L12.6325902,11.5253135 Z M12.9893591,27.4189468 L12.6981674,26.9552162 L12.603387,27.014732 L12.8945788,27.4784625 L12.9893591,27.4189468 Z M13.0232688,15.2894197 L12.7372584,15.7562591 L12.8326897,15.8147253 L13.1187001,15.347886 L13.0232688,15.2894197 Z M13.1620156,28.1282744 L12.8806685,27.6578081 L12.7846165,27.7152489 L13.0659636,28.1857152 L13.1620156,28.1282744 Z M13.301285,29.1942661 L12.8966218,28.8279449 L12.8215129,28.9109152 L13.2261761,29.2772365 L13.301285,29.1942661 Z M13.1295481,13.973257 L12.8425015,14.4395783 L12.9378094,14.4982455 L13.224856,14.0319243 L13.1295481,13.973257 Z M13.1503177,12.3421865 L12.8886597,12.8235337 L12.986988,12.8769845 L13.248646,12.3956373 L13.1503177,12.3421865 Z M13.3724003,11.2110067 L12.8516749,11.3415767 L12.878895,11.4501332 L13.3996204,11.3195632 L13.3724003,11.2110067 Z M13.3329061,12.9496233 L12.9541496,13.3397787 L13.0344514,13.4177342 L13.4132079,13.0275788 L13.3329061,12.9496233 Z M13.247025,14.5424922 L13.0081649,15.0367927 L13.1089335,15.085487 L13.3477936,14.5911865 L13.247025,14.5424922 Z M13.4761017,29.7286096 L13.1584851,29.2840501 L13.0674216,29.3491106 L13.3850382,29.7936702 L13.4761017,29.7286096 Z M13.2744575,24.2321266 L13.3153902,23.6813494 L13.2037808,23.6730548 L13.1628482,24.223832 L13.2744575,24.2321266 Z M13.6077271,25.6757541 L13.2160173,25.298552 L13.1383869,25.3791682 L13.5300967,25.7563703 L13.6077271,25.6757541 Z M12.9704794,17.5905762 L13.5005312,17.6698508 L13.5170854,17.5591648 L12.9870336,17.4798902 L12.9704794,17.5905762 Z M13.4320803,16.0069517 L13.2253446,16.5167963 L13.3290596,16.5588514 L13.5357953,16.0490068 L13.4320803,16.0069517 Z M13.5879234,11.7699938 L13.1423275,12.0772477 L13.205859,12.1693845 L13.6514549,11.8621306 L13.5879234,11.7699938 Z M13.6028437,27.2336471 L13.4292685,26.7113673 L13.3230631,26.7466638 L13.4966382,27.2689436 L13.6028437,27.2336471 Z M13.7483992,10.9859926 L13.2173111,10.91449 L13.202378,11.0254064 L13.7334661,11.096909 L13.7483992,10.9859926 Z M13.6876363,13.5605222 L13.2311596,13.8501595 L13.2911202,13.9446591 L13.7475968,13.6550218 L13.6876363,13.5605222 Z M13.7430048,28.3836897 L13.4917094,27.8961249 L13.3922284,27.9473984 L13.6435237,28.4349632 L13.7430048,28.3836897 Z M13.8060063,30.0737419 L13.6914985,29.5405812 L13.5820766,29.564082 L13.6965844,30.0972426 L13.8060063,30.0737419 Z M13.9007572,28.8908065 L13.5484255,28.4742262 L13.4629734,28.5464992 L13.815305,28.9630795 L13.9007572,28.8908065 Z M13.939556,12.3447905 L13.4768617,12.6230289 L13.5345373,12.7189401 L13.9972316,12.4407017 L13.939556,12.3447905 Z M13.8829447,26.5392149 L13.6321675,26.0506138 L13.5325993,26.1017178 L13.7833765,26.5903188 L13.8829447,26.5392149 Z M13.5941008,18.7181681 L13.9080904,19.1653184 L13.9996816,19.1010028 L13.685692,18.6538526 L13.5941008,18.7181681 Z M14.0100028,10.4239863 L13.541609,10.6923801 L13.5972511,10.7894852 L14.0656449,10.5210914 L14.0100028,10.4239863 Z M14.0905503,27.7865657 L13.7522083,27.3580683 L13.664372,27.4274239 L14.0027139,27.8559213 L14.0905503,27.7865657 Z M14.0861051,12.894612 L13.6721154,13.2453892 L13.7444649,13.3307766 L14.1584545,12.9799994 L14.0861051,12.894612 Z M13.9865715,14.4951849 L13.6912347,14.9558066 L13.7854492,15.0162141 L14.080786,14.5555923 L13.9865715,14.4951849 Z M14.1255616,30.4826309 L13.9514683,29.9665688 L13.8454229,30.0023432 L14.0195162,30.5184053 L14.1255616,30.4826309 Z M14.0795621,11.3241542 L13.7588367,11.7666412 L13.8494535,11.8323225 L14.1701789,11.3898354 L14.0795621,11.3241542 Z M14.0937859,13.7185625 L13.7989673,14.1797024 L13.8932607,14.2399867 L14.1880794,13.7788468 L14.0937859,13.7185625 Z M14.1464744,29.448324 L14.0609822,28.9032463 L13.9504168,28.9205879 L14.035909,29.4656656 L14.1464744,29.448324 Z M13.7797201,22.0906183 L14.229461,21.7911364 L14.1674302,21.6979827 L13.7176892,21.9974646 L13.7797201,22.0906183 Z M14.0499456,15.4392595 L14.0027954,15.9890005 L14.1143031,15.9985643 L14.1614533,15.4488234 L14.0499456,15.4392595 Z M14.4101041,11.9689177 L13.9308295,12.216068 L13.9821239,12.3155382 L14.4613985,12.068388 L14.4101041,11.9689177 Z M14.1683475,9.91451057 L14.0968449,10.4616608 L14.2078183,10.476163 L14.2793209,9.92901275 L14.1683475,9.91451057 Z M13.8866512,20.3772472 L14.4135942,20.2767291 L14.3926234,20.1667942 L13.8656804,20.2673124 L13.8866512,20.3772472 Z M14.5259221,10.9031005 L14.0896527,11.2238259 L14.1559432,11.313998 L14.5922126,10.9932726 L14.5259221,10.9031005 Z M14.4961809,25.082055 L14.3246783,24.5587389 L14.2183268,24.5935927 L14.3898294,25.1169088 L14.4961809,25.082055 Z M14.6390183,12.9042972 L14.1706246,13.172691 L14.2262666,13.2697961 L14.6946604,13.0014023 L14.6390183,12.9042972 Z M14.7298035,30.7106389 L14.2391299,30.476442 L14.1909219,30.577444 L14.6815955,30.8116409 L14.7298035,30.7106389 Z M14.6998227,29.7747039 L14.3376465,29.3679682 L14.2540633,29.4423945 L14.6162395,29.8491303 L14.6998227,29.7747039 Z M14.6996221,28.8034954 L14.3353734,28.3988322 L14.2521913,28.4737067 L14.6164401,28.8783699 L14.6996221,28.8034954 Z M14.127894,16.6716581 L14.4133863,17.1390156 L14.5088935,17.0806735 L14.2234013,16.613316 L14.127894,16.6716581 Z M14.4193128,23.8513598 L14.5628361,23.3192355 L14.4547805,23.2900909 L14.3112572,23.8222153 L14.4193128,23.8513598 Z M14.4978772,14.7113032 L14.3947684,15.2532721 L14.5047135,15.274189 L14.6078223,14.7322201 L14.4978772,14.7113032 Z M14.7186529,26.1142133 L14.4316063,25.6473739 L14.3362694,25.7059939 L14.623316,26.1728333 L14.7186529,26.1142133 Z M14.7732455,28.3028863 L14.432831,27.8769795 L14.3454073,27.9468547 L14.6858218,28.3727614 L14.7732455,28.3028863 Z M14.749902,9.62957218 L14.2903165,9.91299187 L14.3490618,10.0082517 L14.8086473,9.72483197 L14.749902,9.62957218 Z M14.7707341,27.6466774 L14.4722885,27.1881281 L14.3784887,27.2491776 L14.6769343,27.7077268 L14.7707341,27.6466774 Z M14.6343433,13.6732625 L14.3374521,14.132848 L14.4314598,14.1935768 L14.728351,13.7339913 L14.6343433,13.6732625 Z M14.8558635,12.3295208 L14.3527547,12.5196762 L14.392323,12.6243652 L14.8954318,12.4342098 L14.8558635,12.3295208 Z M14.8270516,27.0545707 L14.6099532,26.5499075 L14.5071453,26.5941339 L14.7242437,27.0987972 L14.8270516,27.0545707 Z M14.9281179,10.4996799 L14.4840764,10.8090064 L14.5480479,10.9008382 L14.9920894,10.5915118 L14.9281179,10.4996799 Z M15.0282893,30.2631623 L14.635025,29.8875147 L14.5577211,29.9684439 L14.9509853,30.3440916 L15.0282893,30.2631623 Z M14.9368312,11.442843 L14.5041888,11.7682316 L14.5714589,11.8576752 L15.0041014,11.5322866 L14.9368312,11.442843 Z M15.1104463,31.2535891 L14.7249541,30.8701694 L14.6460304,30.9495197 L15.0315226,31.3329394 L15.1104463,31.2535891 Z M15.0898097,13.1967278 L14.6328149,13.4853289 L14.6925737,13.5799561 L15.1495685,13.2913551 L15.0898097,13.1967278 Z M15.3300534,9.52654244 L14.7953384,9.56125746 L14.8025891,9.67293943 L15.3373041,9.6382244 L15.3300534,9.52654244 Z M15.2249189,29.2526791 L14.8653334,28.8438708 L14.7812988,28.9177872 L15.1408842,29.3265955 L15.2249189,29.2526791 Z M15.1416925,14.1746563 L14.7349567,14.5342418 L14.8090847,14.6180898 L15.2158205,14.2585043 L15.1416925,14.1746563 Z M14.9901799,15.2896393 L15.0668639,15.8362714 L15.1776957,15.8207234 L15.1010118,15.2740913 L14.9901799,15.2896393 Z M15.3270483,12.2972292 L14.8462193,12.5407525 L14.8967859,12.6405947 L15.3776149,12.3970713 L15.3270483,12.2972292 Z M14.8045434,17.8243598 L15.1579113,18.2393858 L15.243125,18.1668319 L14.8897571,17.751806 L14.8045434,17.8243598 Z M15.303197,10.0203416 L14.9363576,10.4229323 L15.0190828,10.4983112 L15.3859222,10.0957206 L15.303197,10.0203416 Z M15.3941749,10.9920824 L14.9905479,11.3552949 L15.0654106,11.4384875 L15.4690376,11.0752751 L15.3941749,10.9920824 Z M15.5302275,28.1780955 L15.1607975,27.7780955 L15.0785808,27.8540288 L15.4480108,28.2540288 L15.5302275,28.1780955 Z M15.5419554,29.7582476 L15.1756341,29.3546206 L15.0927596,29.4298353 L15.4590809,29.8334623 L15.5419554,29.7582476 Z M15.6046275,30.462798 L15.2227622,30.0752333 L15.1430409,30.1537823 L15.5249062,30.541347 L15.6046275,30.462798 Z M15.5356808,11.6762207 L15.1004477,11.9974642 L15.1669098,12.0875098 L15.602143,11.7662663 L15.5356808,11.6762207 Z M15.3792981,8.83542782 L15.2129769,9.36029829 L15.3196656,9.39410585 L15.4859868,8.86923539 L15.3792981,8.83542782 Z M15.6463426,31.0392339 L15.2675861,30.6495966 L15.1873362,30.7276055 L15.5660926,31.1172428 L15.6463426,31.0392339 Z M15.5891362,13.1947608 L15.1720378,13.5408748 L15.2435063,13.6270008 L15.6606047,13.2808868 L15.5891362,13.1947608 Z M15.5161337,26.659781 L15.3700197,26.1281748 L15.2621046,26.1578356 L15.4082186,26.6894418 L15.5161337,26.659781 Z M15.6681665,28.7891556 L15.3054722,28.382938 L15.221989,28.4574765 L15.5846833,28.8636941 L15.6681665,28.7891556 Z M15.7542798,31.7369997 L15.3444352,31.3815593 L15.2711088,31.4661091 L15.6809534,31.8215495 L15.7542798,31.7369997 Z M15.2063231,16.350704 L15.5783438,16.7475952 L15.6599981,16.6710576 L15.2879774,16.2741664 L15.2063231,16.350704 Z M15.1709845,21.1990097 L15.7020726,21.2684398 L15.7165803,21.1574669 L15.1854922,21.0880369 L15.1709845,21.1990097 Z M15.7793181,12.6420967 L15.2917534,12.8711122 L15.3393347,12.9724111 L15.8268995,12.7433955 L15.7793181,12.6420967 Z M15.7371964,22.8148873 L15.2905642,22.5107422 L15.2275705,22.6032475 L15.6742026,22.9073925 L15.7371964,22.8148873 Z M15.8464181,27.6533647 L15.4785425,27.2523284 L15.3960689,27.3279825 L15.7639446,27.7290188 L15.8464181,27.6533647 Z M15.4517224,25.7273851 L15.7398053,25.2621002 L15.6446506,25.2031848 L15.3565677,25.6684698 L15.4517224,25.7273851 Z M15.8190826,24.3918043 L15.3408442,24.1430996 L15.2892076,24.2423926 L15.7674459,24.4910973 L15.8190826,24.3918043 Z M15.6606927,10.4615927 L15.4513663,10.9698828 L15.5548513,11.0125006 L15.7641778,10.5042104 L15.6606927,10.4615927 Z M15.7685227,9.56058404 L15.4643777,10.0149882 L15.557384,10.0772398 L15.8615291,9.62283565 L15.7685227,9.56058404 Z M15.7035325,13.8994236 L15.4641542,14.393206 L15.5648613,14.4420272 L15.8042395,13.9482448 L15.7035325,13.8994236 Z M15.4975542,18.8445876 L15.7415957,19.3357793 L15.841824,19.2859823 L15.5977825,18.7947906 L15.4975542,18.8445876 Z M15.6694688,14.5749827 L15.8363081,15.0998532 L15.9429665,15.0659499 L15.7761271,14.5410795 L15.6694688,14.5749827 Z M16.0495006,8.72244311 L15.5391379,8.88876435 L15.5738154,8.99517347 L16.0841781,8.82885223 L16.0495006,8.72244311 Z M16.0358599,29.7841044 L15.8187615,29.2794412 L15.7159536,29.3236676 L15.933052,29.8283308 L16.0358599,29.7841044 Z M16.0525004,11.7166372 L15.650946,12.0819222 L15.7262561,12.1647099 L16.1278105,11.799425 L16.0525004,11.7166372 Z M16.1114365,13.3302418 L15.7451153,13.7333506 L15.8279417,13.8086183 L16.194263,13.4055095 L16.1114365,13.3302418 Z M16.1501244,11.0269318 L15.7382073,11.3797816 L15.8110155,11.464778 L16.2229326,11.1119283 L16.1501244,11.0269318 Z M16.0777105,12.2847997 L15.8170888,12.7671831 L15.9155537,12.8203817 L16.1761755,12.3379982 L16.0777105,12.2847997 Z M16.2149883,26.9431952 L15.8486671,26.5400864 L15.7658407,26.615354 L16.1321619,27.0184628 L16.2149883,26.9431952 Z M16.2903833,30.3858652 L15.9111087,29.9957098 L15.8308603,30.0737203 L16.2101349,30.4638757 L16.2903833,30.3858652 Z M16.2711155,29.1270485 L15.9234471,28.7063231 L15.8371747,28.7776147 L16.1848431,29.1983401 L16.2711155,29.1270485 Z M16.3581036,31.5958716 L15.9415233,31.2487213 L15.8698757,31.3346984 L16.286456,31.6818487 L16.3581036,31.5958716 Z M16.2372856,10.1257977 L15.8243322,10.4776111 L15.8969113,10.5628034 L16.3098647,10.2109899 L16.2372856,10.1257977 Z M16.3958899,31.007461 L16.0005532,30.6349222 L15.9237992,30.7163732 L16.319136,31.088912 L16.3958899,31.007461 Z M16.4984019,32.2262626 L16.0657594,31.900874 L15.9984893,31.9903177 L16.4311318,32.3157063 L16.4984019,32.2262626 Z M16.3565517,9.2216558 L15.9389351,9.56725166 L16.0102877,9.65347373 L16.4279042,9.30787788 L16.3565517,9.2216558 Z M16.4440009,28.0428531 L16.1336382,27.592594 L16.0414913,27.6561107 L16.351854,28.1063697 L16.4440009,28.0428531 Z M16.4637064,8.39906109 L15.9424628,8.52859477 L15.9694542,8.63720834 L16.4906978,8.50767466 L16.4637064,8.39906109 Z M16.5527415,28.6138075 L16.2024824,28.1956727 L16.1166886,28.2675397 L16.4669477,28.6856744 L16.5527415,28.6138075 Z M15.9534298,15.4677985 L16.3352951,15.8548452 L16.4149639,15.7762429 L16.0330987,15.3891963 L15.9534298,15.4677985 Z M16.5286674,11.480212 L16.2240041,11.934098 L16.3169285,11.9964719 L16.6215917,11.5425859 L16.5286674,11.480212 Z M16.511877,25.4568825 L16.4341568,24.9107685 L16.3233562,24.9265372 L16.4010764,25.4726511 L16.511877,25.4568825 Z M16.5891177,12.9972119 L16.3585478,13.4951393 L16.4601051,13.5421664 L16.690675,13.0442389 L16.5891177,12.9972119 Z M16.6769279,10.6652552 L16.2354772,10.9787267 L16.3002741,11.069978 L16.7417249,10.7565065 L16.6769279,10.6652552 Z M16.3529088,16.9251982 L16.5850332,17.4231257 L16.6864694,17.375838 L16.4543451,16.8779106 L16.3529088,16.9251982 Z M16.7737718,9.79176596 L16.2856889,10.0192271 L16.3329639,10.1206693 L16.8210468,9.89320813 L16.7737718,9.79176596 Z M16.7585361,12.5084532 L16.3336656,12.8447226 L16.4031219,12.9324794 L16.8279924,12.59621 L16.7585361,12.5084532 Z M16.8414997,29.5950255 L16.4653339,29.2012432 L16.384407,29.2785496 L16.7605728,29.672332 L16.8414997,29.5950255 Z M16.9021928,30.1737223 L16.4819856,29.8312352 L16.4112787,29.9179876 L16.8314859,30.2604746 L16.9021928,30.1737223 Z M16.9475623,8.16644591 L16.4128473,8.2021972 L16.4203134,8.31386497 L16.9550284,8.27811368 L16.9475623,8.16644591 Z M16.4613803,13.8171491 L16.8593077,14.1870973 L16.9355109,14.1051307 L16.5375835,13.7351825 L16.4613803,13.8171491 Z M16.3125709,20.3572712 L16.8415864,20.4453541 L16.859968,20.3349568 L16.3309524,20.2468739 L16.3125709,20.3572712 Z M16.9956422,8.95749518 L16.4645541,9.02899777 L16.4794873,9.13991415 L17.0105754,9.06841155 L16.9956422,8.95749518 Z M16.6084298,23.8940154 L16.8845956,23.4209584 L16.7879432,23.3645338 L16.5117774,23.8375908 L16.6084298,23.8940154 Z M17.0813555,30.9399292 L16.6165887,30.6647996 L16.5595772,30.7611071 L17.024344,31.0362366 L17.0813555,30.9399292 Z M17.0948696,31.6993329 L16.6337297,31.419022 L16.5755967,31.5146567 L17.0367366,31.7949676 L17.0948696,31.6993329 Z M16.9393653,11.9852197 L16.5735622,12.3888467 L16.6564896,12.4640031 L17.0222927,12.0603761 L16.9393653,11.9852197 Z M16.898494,26.9853868 L16.7953852,26.4439361 L16.6854438,26.4648722 L16.7885526,27.006323 L16.898494,26.9853868 Z M17.1726304,32.5544085 L16.71719,32.2632168 L16.6569033,32.3575086 L17.1123437,32.6487003 L17.1726304,32.5544085 Z M17.1268789,27.6343091 L16.8092623,27.1897495 L16.7181988,27.2548101 L17.0358154,27.6993696 L17.1268789,27.6343091 Z M17.1124442,11.1755879 L16.6564857,11.4657433 L16.7165713,11.5601634 L17.1725298,11.270008 L17.1124442,11.1755879 Z M17.2250837,10.4739683 L16.6976225,10.3775952 L16.677507,10.4876897 L17.2049681,10.5840628 L17.2250837,10.4739683 Z M17.0546619,26.1575376 L16.9629521,25.6134962 L16.852592,25.6320997 L16.9443018,26.1761411 L17.0546619,26.1575376 Z M16.8444403,14.3025242 L16.9102434,14.8507107 L17.0213628,14.8373722 L16.9555597,14.2891856 L16.8444403,14.3025242 Z M17.2675035,28.7176399 L16.9146538,28.302614 L16.8293877,28.3751062 L17.1822374,28.7901321 L17.2675035,28.7176399 Z M17.2358239,9.35344767 L16.844114,9.73013161 L16.9216891,9.81080104 L17.3133989,9.4341171 L17.2358239,9.35344767 Z M17.3286615,29.3066307 L16.9644127,28.9014493 L16.8811831,28.9762709 L17.2454318,29.3814522 L17.3286615,29.3066307 Z M17.2553089,30.512124 L17.2931327,29.9613468 L17.1814787,29.9536791 L17.1436548,30.5044563 L17.2553089,30.512124 Z M17.2333908,7.66666834 L16.9779504,8.15164244 L17.0769719,8.20379798 L17.3324123,7.71882389 L17.2333908,7.66666834 Z M16.8346976,22.1699104 L17.3704489,22.1502213 L17.3663387,22.0383797 L16.8305874,22.0580689 L16.8346976,22.1699104 Z M17.5159642,28.1781784 L17.1719227,27.7548624 L17.0850721,27.8254485 L17.4291135,28.2487646 L17.5159642,28.1781784 Z M17.2798701,12.897577 L17.2508546,13.4488723 L17.3626169,13.4547546 L17.3916325,12.9034593 L17.2798701,12.897577 Z M17.5282388,8.50466902 L17.0489642,8.75181927 L17.1002586,8.85128953 L17.5795332,8.60413927 L17.5282388,8.50466902 Z M17.5630524,11.8538977 L17.0604617,12.0445713 L17.1001601,12.1492111 L17.6027507,11.9585375 L17.5630524,11.8538977 Z M17.3627344,10.7770898 L17.2850142,11.3232038 L17.3958148,11.3389724 L17.473535,10.7928584 L17.3627344,10.7770898 Z M17.0974919,15.6603172 L17.3933468,16.1204208 L17.4874822,16.0598901 L17.1916273,15.5997864 L17.0974919,15.6603172 Z M17.7207984,31.2771377 L17.2456689,31.0216973 L17.1926731,31.1202716 L17.6678026,31.375712 L17.7207984,31.2771377 Z M16.9288737,18.2534913 L17.3708426,18.5654084 L17.435375,18.4739698 L16.9934061,18.1620527 L16.9288737,18.2534913 Z M17.5974202,9.92421689 L17.1844668,10.2755122 L17.2569839,10.3607572 L17.6699373,10.0094619 L17.5974202,9.92421689 Z M17.7682316,32.1003748 L17.2972472,31.8371624 L17.2426492,31.9348583 L17.7136337,32.1980708 L17.7682316,32.1003748 Z M17.8005076,29.7071448 L17.3253781,29.4527406 L17.2725494,29.5514045 L17.7476789,29.8058086 L17.8005076,29.7071448 Z M17.7448141,12.4140602 L17.3142442,12.7425576 L17.3821289,12.8315357 L17.8126988,12.5030383 L17.7448141,12.4140602 Z M17.8942431,32.9185682 L17.4237767,32.6543195 L17.3689694,32.7518981 L17.8394357,33.0161468 L17.8942431,32.9185682 Z M17.8069373,9.06077073 L17.3530513,9.35403497 L17.4137881,9.44803756 L17.8676741,9.15477332 L17.8069373,9.06077073 Z M17.4541323,25.0398408 L17.8116452,24.6289599 L17.7272149,24.555496 L17.3697019,24.9663768 L17.4541323,25.0398408 Z M18.0068466,30.6575232 L17.5374165,30.3917201 L17.4822726,30.4891089 L17.9517026,30.754912 L18.0068466,30.6575232 Z M17.9278751,7.56515358 L17.4050772,7.68536083 L17.430156,7.79443192 L17.9529539,7.67422466 L17.9278751,7.56515358 Z M17.9994184,10.5415969 L17.5501956,10.8426332 L17.6124987,10.9356051 L18.0617215,10.6345689 L17.9994184,10.5415969 Z M17.8723805,11.287191 L17.6449194,11.787191 L17.7467905,11.8335344 L17.9742516,11.3335344 L17.8723805,11.287191 Z M17.8695578,26.6158642 L17.7705941,26.0733772 L17.660494,26.0934622 L17.7594577,26.6359493 L17.8695578,26.6158642 Z M18.1131202,28.9567047 L17.6359181,28.7054094 L17.583771,28.8044352 L18.0609731,29.0557305 L18.1131202,28.9567047 Z M18.0831964,27.2772574 L17.7500358,26.8446149 L17.6613632,26.9128981 L17.9945238,27.3455406 L18.0831964,27.2772574 Z M17.6477158,14.4206408 L17.9508246,14.8760812 L18.0439941,14.8140742 L17.7408853,14.3586338 L17.6477158,14.4206408 Z M17.5222585,20.1288573 L18.0093051,20.3583909 L18.0570161,20.2571531 L17.5699695,20.0276194 L17.5222585,20.1288573 Z M18.1401413,8.22815332 L17.6292605,8.39499269 L17.6640037,8.50138036 L18.1748846,8.33454098 L18.1401413,8.22815332 Z M17.8959939,13.2789595 L17.8571338,13.8292185 L17.9687729,13.8371027 L18.007633,13.2868436 L17.8959939,13.2789595 Z M18.159382,9.71537202 L17.6640452,9.92677098 L17.7079755,10.0297057 L18.2033123,9.81830674 L18.159382,9.71537202 Z M17.6825814,23.3474281 L18.1162602,23.6712623 L18.1832217,23.5815874 L17.749543,23.2577532 L17.6825814,23.3474281 Z M18.3181436,28.3574142 L17.842496,28.1024919 L17.7896284,28.201135 L18.2652761,28.4560573 L18.3181436,28.3574142 Z M18.3347496,27.7597548 L17.8953714,27.4436926 L17.8300172,27.5345457 L18.2693954,27.8506079 L18.3347496,27.7597548 Z M17.9264713,30.0529363 L18.3389066,29.7011228 L18.2662748,29.6159756 L17.8538395,29.9677891 L17.9264713,30.0529363 Z M18.3716051,31.5251196 L17.851916,31.3898864 L17.8237317,31.4981965 L18.3434208,31.6334296 L18.3716051,31.5251196 Z M18.1599742,8.68996674 L18.0610105,9.23297192 L18.1711139,9.25303845 L18.2700776,8.71003326 L18.1599742,8.68996674 Z M18.2355238,12.0421869 L17.9987362,12.5375237 L18.0997094,12.5857923 L18.3364969,12.0904555 L18.2355238,12.0421869 Z M18.5106016,32.3898987 L18.0245912,32.1582925 L17.976445,32.2593241 L18.4624554,32.4909303 L18.5106016,32.3898987 Z M18.4256525,7.23896886 L17.9712483,7.53171497 L18.0318605,7.62579798 L18.4862646,7.33305187 L18.4256525,7.23896886 Z M18.3883687,31.0234027 L18.3381096,30.4736618 L18.2266573,30.4838511 L18.2769163,31.0335921 L18.3883687,31.0234027 Z M18.364402,10.2611156 L18.0752828,10.7258825 L18.1703131,10.7849983 L18.4594322,10.3202315 L18.364402,10.2611156 Z M18.6585308,33.2257751 L18.1735567,32.9915782 L18.1248889,33.0923596 L18.609863,33.3265565 L18.6585308,33.2257751 Z M18.5663721,11.4278731 L18.058082,11.6014482 L18.0942496,11.7073601 L18.6025398,11.533785 L18.5663721,11.4278731 Z M18.658277,29.0083446 L18.1562045,29.2000544 L18.1961272,29.3046088 L18.6981997,29.112899 L18.658277,29.0083446 Z M18.5219316,9.33202549 L18.2172684,9.7859115 L18.3101927,9.84828539 L18.614856,9.39439938 L18.5219316,9.33202549 Z M18.1006954,16.5185603 L18.4628716,16.9252961 L18.5464548,16.8508697 L18.1842787,16.444134 L18.1006954,16.5185603 Z M18.1508393,25.2555931 L18.6358134,25.4892718 L18.6843939,25.3884484 L18.1994198,25.1547696 L18.1508393,25.2555931 Z M18.629307,7.85328041 L18.2603951,8.25379855 L18.3427137,8.32962114 L18.7116256,7.92910301 L18.629307,7.85328041 Z M18.468184,30.2987494 L18.8832099,29.9490084 L18.8110906,29.8634268 L18.3960647,30.2131677 L18.468184,30.2987494 Z M18.8524189,26.3749393 L18.4871339,25.9702761 L18.4040578,26.045268 L18.7693427,26.4499312 L18.8524189,26.3749393 Z M18.6270855,12.4597399 L18.5877073,13.0105172 L18.6993394,13.0184984 L18.7387176,12.4677212 L18.6270855,12.4597399 Z M18.3371782,21.7048921 L18.7123078,22.0991926 L18.7933917,22.0220509 L18.4182622,21.6277504 L18.3371782,21.7048921 Z M18.9886004,28.275081 L18.4854916,28.4642002 L18.5248711,28.5689604 L19.0279799,28.3798412 L18.9886004,28.275081 Z M18.7616037,10.7400295 L18.6149716,11.2711176 L18.7228523,11.3009032 L18.8694844,10.7698151 L18.7616037,10.7400295 Z M18.8604125,8.48218679 L18.519998,8.90861166 L18.6074631,8.97843497 L18.9478776,8.5520101 L18.8604125,8.48218679 Z M18.9388478,31.3135702 L18.8326302,30.7726376 L18.7228103,30.7942018 L18.8290279,31.3351345 L18.9388478,31.3135702 Z M19.0455188,31.9627901 L18.7076949,31.5337745 L18.6197662,31.6030131 L18.9575901,32.0320286 L19.0455188,31.9627901 Z M18.9149829,9.80048746 L18.6056565,10.2517828 L18.6979705,10.3150566 L19.0072969,9.86376124 L18.9149829,9.80048746 Z M18.385078,18.0506021 L18.746736,18.4583741 L18.8304661,18.384113 L18.468808,17.9763409 L18.385078,18.0506021 Z M19.0589094,27.5008448 L18.5635726,27.7117256 L18.6074118,27.8146992 L19.1027486,27.6038184 L19.0589094,27.5008448 Z M19.006146,6.99126202 L18.5418973,7.26690969 L18.5990353,7.36314212 L19.063284,7.08749446 L19.006146,6.99126202 Z M18.6497402,13.4054363 L18.8305692,13.9251254 L18.9362702,13.8883461 L18.7554412,13.3686569 L18.6497402,13.4054363 Z M19.045112,27.1989584 L18.8264592,26.6953315 L18.7237999,26.7399017 L18.9424527,27.2435286 L19.045112,27.1989584 Z M19.1595159,29.1521356 L18.7553708,29.5148299 L18.8301214,29.5981234 L19.2342665,29.2354291 L19.1595159,29.1521356 Z M19.282006,32.6418597 L18.7830423,32.4413416 L18.7413101,32.5451869 L19.2402738,32.7457051 L19.282006,32.6418597 Z M19.1308603,9.10296368 L18.7515856,9.49311912 L18.831834,9.57112959 L19.2111087,9.18097415 L19.1308603,9.10296368 Z M18.7484132,14.8257117 L19.0997085,15.242292 L19.1852655,15.1701432 L18.8339702,14.7535629 L18.7484132,14.8257117 Z M19.2264335,7.62357534 L18.7974179,7.95466342 L18.8657945,8.04326404 L19.2948101,7.71217596 L19.2264335,7.62357534 Z M19.290611,30.5786023 L19.1818027,30.0376697 L19.0720833,30.0597396 L19.1808916,30.6006723 L19.290611,30.5786023 Z M19.4576537,33.4905644 L18.9586899,33.2900462 L18.9169577,33.3938916 L19.4159215,33.5944097 L19.4576537,33.4905644 Z M19.3157687,11.2911979 L18.9136961,11.6559647 L18.9888946,11.7388539 L19.3909671,11.3740871 L19.3157687,11.2911979 Z M19.3749934,10.3510545 L18.8511592,10.4665985 L18.8752657,10.5758885 L19.3990999,10.4603445 L19.3749934,10.3510545 Z M18.9164799,24.3222263 L19.428397,24.1590139 L19.3944009,24.0523851 L18.8824838,24.2155975 L18.9164799,24.3222263 Z M19.5844958,28.5938877 L19.054444,28.514095 L19.037784,28.6247651 L19.5678358,28.7045579 L19.5844958,28.5938877 Z M19.5778083,8.44123275 L19.0446477,8.38579233 L19.0330725,8.49710922 L19.5662331,8.55254964 L19.5778083,8.44123275 Z M19.200074,11.9419329 L19.3679497,12.4662852 L19.4745374,12.4321604 L19.3066617,11.907808 L19.200074,11.9419329 Z M19.635489,6.80059617 L19.1422248,7.01769461 L19.1873089,7.12012922 L19.6805732,6.90303078 L19.635489,6.80059617 Z M19.6587023,31.2920179 L19.3825365,30.8184428 L19.2858573,30.8748215 L19.5620231,31.3483966 L19.6587023,31.2920179 Z M19.6181519,25.3856497 L19.2368047,24.9975668 L19.1569777,25.0760083 L19.5383248,25.4640912 L19.6181519,25.3856497 Z M19.1932678,19.4567372 L19.3590709,19.9821258 L19.4657995,19.9484442 L19.2999964,19.4230556 L19.1932678,19.4567372 Z M19.7527528,26.4332356 L19.3128564,26.1187279 L19.2477653,26.2097695 L19.6876617,26.5242773 L19.7527528,26.4332356 Z M19.6502507,9.39601275 L19.2595771,9.77321482 L19.3373141,9.85372819 L19.7279877,9.47652611 L19.6502507,9.39601275 Z M19.8208184,29.5093377 L19.2897304,29.5829128 L19.3050883,29.6937711 L19.8361764,29.620196 L19.8208184,29.5093377 Z M19.8214701,31.8385181 L19.2872732,31.8810052 L19.2961465,31.9925699 L19.8303434,31.9500829 L19.8214701,31.8385181 Z M19.7388722,27.6511081 L19.2772142,27.9309008 L19.335221,28.0266121 L19.7968791,27.7468194 L19.7388722,27.6511081 Z M19.6786907,8.71547368 L19.4191052,9.19837523 L19.5176823,9.2513657 L19.7772678,8.76846415 L19.6786907,8.71547368 Z M19.6626351,27.4067194 L19.6880237,26.855424 L19.576225,26.8502754 L19.5508364,27.4015708 L19.6626351,27.4067194 Z M19.2256927,22.8780832 L19.6894233,23.1552852 L19.7468462,23.0592225 L19.2831156,22.7820205 L19.2256927,22.8780832 Z M19.587309,7.32878492 L19.5339411,7.87800772 L19.6453335,7.88883166 L19.6987014,7.33960886 L19.587309,7.32878492 Z M19.7997175,10.316902 L19.494018,10.7702699 L19.586811,10.8328389 L19.8925105,10.379471 L19.7997175,10.316902 Z M20.0535117,32.8142922 L19.5441853,32.6438259 L19.5086645,32.7499565 L20.0179909,32.9204228 L20.0535117,32.8142922 Z M20.1335657,28.8619953 L19.6102496,28.7438606 L19.5856053,28.8530306 L20.1089213,28.9711653 L20.1335657,28.8619953 Z M20.0062584,30.5565609 L19.8591082,30.0254728 L19.7512545,30.0553562 L19.8984048,30.5864442 L20.0062584,30.5565609 Z M19.6314379,9.80046855 L19.9842876,10.2160126 L20.0695984,10.1435729 L19.7167487,9.72802886 L19.6314379,9.80046855 Z M20.0985927,8.01771363 L19.6255358,8.27574472 L19.6791275,8.37399622 L20.1521845,8.11596513 L20.0985927,8.01771363 Z M19.6476257,15.7792606 L19.8662785,16.2834057 L19.9689546,16.2388741 L19.7503018,15.734729 L19.6476257,15.7792606 Z M19.9817081,25.6045693 L19.6672003,26.0512015 L19.7587064,26.1156379 L20.0732142,25.6690058 L19.9817081,25.6045693 Z M20.2777993,33.7028716 L19.7679547,33.5329234 L19.7325634,33.6390973 L20.242408,33.8090455 L20.2777993,33.7028716 Z M19.9093327,10.8540817 L19.9010426,11.4058951 L20.012947,11.4075764 L20.0212372,10.8557629 L19.9093327,10.8540817 Z M20.1570987,6.53748083 L19.7954407,6.94525285 L19.8791707,7.01951399 L20.2408288,6.61174197 L20.1570987,6.53748083 Z M19.8905803,13.1954836 L19.958456,13.743152 L20.0695233,13.7293868 L20.0016477,13.1817184 L19.8905803,13.1954836 Z M20.3780738,31.1972169 L19.8547578,31.0796003 L19.8302163,31.1887935 L20.3535324,31.3064101 L20.3780738,31.1972169 Z M19.7039944,21.0107537 L20.0117664,21.4630853 L20.1042958,21.4001271 L19.7965238,20.9477955 L19.7039944,21.0107537 Z M20.3931394,28.0051885 L19.8667146,27.9020797 L19.8452025,28.0119099 L20.3716274,28.1150187 L20.3931394,28.0051885 Z M20.4006499,26.9641536 L19.8685256,26.8983505 L19.8547905,27.0094216 L20.3869148,27.0752247 L20.4006499,26.9641536 Z M20.4215002,9.05598451 L19.9328991,8.8290415 L19.8857537,8.93054399 L20.3743548,9.15748699 L20.4215002,9.05598451 Z M20.0292408,12.1823015 L20.2421941,12.6890373 L20.3453706,12.6456778 L20.1324173,12.138942 L20.0292408,12.1823015 Z M19.9635765,7.30641845 L20.3381879,7.70071896 L20.4193251,7.62363337 L20.0447137,7.22933285 L19.9635765,7.30641845 Z M19.964904,24.0364534 L20.2457331,24.5069197 L20.3418317,24.4495569 L20.0610027,23.9790906 L19.964904,24.0364534 Z M20.5205675,32.2118995 L20.1330027,31.8310705 L20.0545621,31.9108984 L20.4421268,32.2917275 L20.5205675,32.2118995 Z M20.2512954,29.2374107 L20.2523317,29.7897423 L20.3642486,29.7895323 L20.3632123,29.2372007 L20.2512954,29.2374107 Z M19.9423698,17.4679964 L20.1470331,17.977841 L20.2508944,17.9361487 L20.0462312,17.4263041 L19.9423698,17.4679964 Z M20.4916776,8.5901529 L20.3844237,8.04922026 L20.2746437,8.07098699 L20.3818976,8.61191964 L20.4916776,8.5901529 Z M20.4111085,9.70117503 L20.3613676,10.250916 L20.4728293,10.2610011 L20.5225703,9.71126021 L20.4111085,9.70117503 Z M20.7283567,30.2786473 L20.229393,30.4791654 L20.2711252,30.5830108 L20.7700889,30.3824926 L20.7283567,30.2786473 Z M20.3055725,28.7924191 L20.7869197,28.5488958 L20.7363964,28.4490317 L20.2550492,28.692555 L20.3055725,28.7924191 Z M20.6613249,24.9233398 L20.2012212,25.2067595 L20.2599187,25.3020488 L20.7200223,25.0186291 L20.6613249,24.9233398 Z M20.7386072,9.2312428 L20.2183999,9.36284902 L20.2458488,9.47134788 L20.7660561,9.33974166 L20.7386072,9.2312428 Z M20.833819,32.9647887 L20.3167206,32.8191928 L20.2863882,32.9269211 L20.8034867,33.072517 L20.833819,32.9647887 Z M20.8190858,26.4813488 L20.2833345,26.4772037 L20.2824686,26.5891175 L20.8182199,26.5932626 L20.8190858,26.4813488 Z M20.8704921,27.5244373 L20.3352589,27.553971 L20.341425,27.6657181 L20.8766582,27.6361845 L20.8704921,27.5244373 Z M20.5913916,6.3594586 L20.5033087,6.90401819 L20.6137898,6.92188855 L20.7018727,6.37732896 L20.5913916,6.3594586 Z M20.4652441,14.3030246 L20.6123944,14.8341126 L20.7202481,14.8042293 L20.5730978,14.2731412 L20.4652441,14.3030246 Z M20.5085089,25.6726881 L20.7639493,26.1581803 L20.8629937,26.1060684 L20.6075533,25.6205762 L20.5085089,25.6726881 Z M20.9632561,31.512842 L20.7031525,31.0299405 L20.6046195,31.0830129 L20.8647232,31.5659145 L20.9632561,31.512842 Z M20.8724242,7.59887352 L20.7035123,7.07555746 L20.5970058,7.10993477 L20.7659177,7.63325083 L20.8724242,7.59887352 Z M21.1208041,33.8630745 L20.6026694,33.7231781 L20.5734964,33.8312261 L21.0916311,33.9711224 L21.1208041,33.8630745 Z M20.6489933,11.2464708 L20.8510658,11.7578698 L20.9551518,11.7167416 L20.7530793,11.2053426 L20.6489933,11.2464708 Z M20.7316155,29.9075235 L21.198973,29.6375753 L21.1429959,29.540663 L20.6756384,29.8106112 L20.7316155,29.9075235 Z M20.6560487,8.18717171 L21.1171886,7.90634269 L21.0589772,7.81075575 L20.5978373,8.09158477 L20.6560487,8.18717171 Z M20.6886101,10.3775894 L21.0699573,10.7651541 L21.1497319,10.6866593 L20.7683847,10.2990946 L20.6886101,10.3775894 Z M20.8041925,23.2499047 L20.8824308,23.7960187 L20.9932168,23.7801471 L20.9149785,23.2340331 L20.8041925,23.2499047 Z M21.2326272,31.9709401 L20.7771868,32.2610955 L20.837321,32.3554848 L21.2927614,32.0653293 L21.2326272,31.9709401 Z M20.7416918,8.5562887 L21.1567177,8.9055115 L21.2287746,8.8198771 L20.8137487,8.4706543 L20.7416918,8.5562887 Z M20.7116086,19.0892491 L20.9468418,19.5856222 L21.0479769,19.5376939 L20.8127437,19.0413208 L20.7116086,19.0892491 Z M21.3485819,26.9346699 L20.8216389,27.035188 L20.8426098,27.1451228 L21.3695528,27.0446047 L21.3485819,26.9346699 Z M20.7087332,22.288184 L20.9584741,22.7762669 L21.0581062,22.7252875 L20.8083652,22.2372046 L20.7087332,22.288184 Z M21.3760469,28.9461956 L20.8459951,28.8679573 L20.8296526,28.9786748 L21.3597044,29.0569132 L21.3760469,28.9461956 Z M21.4799468,28.0305826 L20.9441955,28.0191836 L20.9418148,28.1310754 L21.4775661,28.1424744 L21.4799468,28.0305826 Z M21.4668816,30.6032733 L21.0083324,30.317781 L20.9491806,30.4127889 L21.4077298,30.6982811 L21.4668816,30.6032733 Z M21.1248709,6.2453857 L21.1227983,6.79719917 L21.2347146,6.79761948 L21.2367872,6.24580601 L21.1248709,6.2453857 Z M21.1597028,9.04351767 L21.1954541,9.59481301 L21.3071366,9.58757041 L21.2713853,9.03627508 L21.1597028,9.04351767 Z M21.0797936,24.3892668 L21.2088091,24.9250181 L21.3176158,24.8988161 L21.1886002,24.3630648 L21.0797936,24.3892668 Z M21.6330164,33.0509934 L21.108146,32.93804 L21.0846002,33.0474522 L21.6094706,33.1604056 L21.6330164,33.0509934 Z M21.0729436,7.28607104 L21.6045498,7.21767725 L21.5902688,7.10667508 L21.0586626,7.17506886 L21.0729436,7.28607104 Z M20.9928171,20.8857385 L21.2140606,21.3888473 L21.3165093,21.3437952 L21.0952658,20.8406864 L20.9928171,20.8857385 Z M21.3991081,25.3137778 L21.2643931,25.8479747 L21.3729126,25.8753414 L21.5076277,25.3411445 L21.3991081,25.3137778 Z M21.4981555,26.1104992 L21.3111089,26.6275976 L21.4163523,26.6656666 L21.6033989,26.1485682 L21.4981555,26.1104992 Z M21.7896902,31.3447077 L21.2643016,31.2348631 L21.2413979,31.3444115 L21.7667865,31.4542561 L21.7896902,31.3447077 Z M21.3599919,7.60328461 L21.5045515,8.13489083 L21.6125469,8.10552368 L21.4679874,7.57391746 L21.3599919,7.60328461 Z M21.4700985,9.60876212 L21.510513,10.1590212 L21.6221295,10.1508234 L21.581715,9.6005643 L21.4700985,9.60876212 Z M21.8434318,27.1212479 L21.3879913,27.4124396 L21.4482781,27.5067314 L21.9037185,27.2155397 L21.8434318,27.1212479 Z M21.4898896,12.7488312 L21.5422212,13.298054 L21.6536337,13.2874382 L21.6013021,12.7382154 L21.4898896,12.7488312 Z M21.9488684,29.6267899 L21.4162259,29.56565 L21.4034632,29.676837 L21.9361057,29.7379769 L21.9488684,29.6267899 Z M21.4702132,15.9405779 L21.6095914,16.4737385 L21.7178697,16.4454325 L21.5784915,15.9122719 L21.4702132,15.9405779 Z M21.5229982,8.25757948 L21.5696303,8.80732041 L21.6811469,8.79786093 L21.6345148,8.24812 L21.5229982,8.25757948 Z M21.9821831,33.9579253 L21.4547219,33.860516 L21.4343973,33.9705721 L21.9618584,34.0679814 L21.9821831,33.9579253 Z M22.0821425,32.1955611 L21.5531269,32.1085145 L21.534956,32.2189466 L22.0639715,32.3059933 L22.0821425,32.1955611 Z M21.5137144,6.3776885 L22.035476,6.5046315 L22.0619333,6.39588663 L21.5401717,6.26894363 L21.5137144,6.3776885 Z M22.1071445,28.7425977 L21.5724295,28.708919 L21.5653944,28.8206147 L22.1001094,28.8542935 L22.1071445,28.7425977 Z M22.1837386,30.4492194 L21.6526505,30.3766806 L21.6375049,30.4875681 L22.168593,30.560107 L22.1837386,30.4492194 Z M21.8224459,11.1224426 L21.8649329,11.6727017 L21.9765179,11.6640859 L21.9340308,11.1138268 L21.8224459,11.1224426 Z M21.7138034,23.3921759 L21.9169122,23.9030567 L22.0209117,23.8617101 L21.8178028,23.3508293 L21.7138034,23.3921759 Z M21.6384054,7.01634731 L22.1347784,7.2251556 L22.1781749,7.12199466 L21.6818019,6.91318637 L21.6384054,7.01634731 Z M21.8772543,25.2993082 L21.9010885,25.8506035 L22.0129011,25.8457695 L21.9890669,25.2944742 L21.8772543,25.2993082 Z M21.878262,24.2710582 L21.8943242,24.8228717 L22.0061939,24.8196154 L21.9901318,24.2678019 L21.878262,24.2710582 Z M21.7187323,17.6004699 L21.8508566,18.1351849 L21.9595061,18.1083384 L21.8273817,17.5736234 L21.7187323,17.6004699 Z M22.1165896,26.225686 L21.8855016,26.7241316 L21.9870373,26.7712052 L22.2181254,26.2727596 L22.1165896,26.225686 Z M22.2148812,27.7282901 L21.8205807,28.1018652 L21.897554,28.1831089 L22.2918546,27.8095338 L22.2148812,27.7282901 Z M22.4617366,33.0734735 L21.9296122,33.0081885 L21.9159836,33.1192726 L22.448108,33.1845576 L22.4617366,33.0734735 Z M21.8679773,8.62934606 L22.297511,8.95939788 L22.3657015,8.87065394 L21.9361678,8.54060212 L21.8679773,8.62934606 Z M22.0362939,7.48134912 L22.1129779,8.02798124 L22.2238097,8.01243326 L22.1471258,7.46580114 L22.0362939,7.48134912 Z M22.4764556,31.132428 L22.0044349,31.3946042 L22.0587775,31.4924424 L22.5307982,31.2302663 L22.4764556,31.132428 Z M22.067655,14.1142172 L22.1873441,14.6525592 L22.2965937,14.6282698 L22.1769046,14.0899279 L22.067655,14.1142172 Z M22.3716941,9.85329218 L22.2841294,10.3978518 L22.3946271,10.4156197 L22.4821919,9.87106016 L22.3716941,9.85329218 Z M22.7279252,29.4393783 L22.1921739,29.4398964 L22.1922821,29.5518134 L22.7280334,29.5512953 L22.7279252,29.4393783 Z M22.2264484,22.5008416 L22.3927696,23.0257121 L22.4994583,22.9919045 L22.3331371,22.467034 L22.2264484,22.5008416 Z M22.4941911,26.8435834 L22.3164709,27.3643088 L22.4223892,27.400458 L22.6001094,26.8797326 L22.4941911,26.8435834 Z M22.1801034,19.7809236 L22.3391708,20.3083848 L22.4463215,20.2760712 L22.2872541,19.7486101 L22.1801034,19.7809236 Z M22.2212589,6.18757311 L22.6575283,6.5082985 L22.7238188,6.41812637 L22.2875494,6.09740098 L22.2212589,6.18757311 Z M22.2203709,6.88427544 L22.7405782,7.01691793 L22.7682301,6.90847067 L22.2480228,6.77582819 L22.2203709,6.88427544 Z M22.5863496,25.7624414 L22.4107019,26.2836849 L22.5167592,26.3194239 L22.6924069,25.7981804 L22.5863496,25.7624414 Z M22.8645872,33.9816201 L22.3314266,33.9287703 L22.3203869,34.0401416 L22.8535475,34.0929913 L22.8645872,33.9816201 Z M22.8341178,32.0510581 L22.3242733,32.2210063 L22.3596646,32.3271802 L22.8695091,32.157232 L22.8341178,32.0510581 Z M22.4410242,9.00682684 L22.4726304,9.55864031 L22.5843644,9.55224052 L22.5527582,9.00042705 L22.4410242,9.00682684 Z M22.4179608,24.6326218 L22.4791007,25.1813264 L22.5903294,25.1689326 L22.5291895,24.620228 L22.4179608,24.6326218 Z M22.8753683,30.2902291 L22.3406533,30.3176902 L22.3463934,30.4294601 L22.8811084,30.4019989 L22.8753683,30.2902291 Z M22.7904708,28.4310078 L22.34902,28.743443 L22.4136743,28.8347953 L22.8551251,28.5223601 L22.7904708,28.4310078 Z M22.2210826,21.4601152 L22.4247095,21.9704779 L22.5286583,21.9290039 L22.3250314,21.4186412 L22.2210826,21.4601152 Z M22.8562842,8.4842801 L22.5112065,8.06200031 L22.4245448,8.13281834 L22.7696225,8.55509813 L22.8562842,8.4842801 Z M22.965846,7.56408415 L22.7254315,7.0708199 L22.6248276,7.11985368 L22.8652421,7.61311793 L22.965846,7.56408415 Z M22.7886177,27.4391895 L22.8020892,27.991003 L22.913973,27.9882716 L22.9005015,27.4364581 L22.7886177,27.4391895 Z M22.6914521,23.2227733 L22.7831619,23.7668147 L22.893522,23.7482112 L22.8018122,23.2041697 L22.6914521,23.2227733 Z M22.8839856,25.1562371 L22.8611877,25.7075324 L22.9730092,25.7121567 L22.9958072,25.1608613 L22.8839856,25.1562371 Z M23.3144226,32.9399876 L22.7797076,32.9705576 L22.7860955,33.0822922 L23.3208106,33.0517222 L23.3144226,32.9399876 Z M23.2717501,31.0514894 L22.7468796,31.1634065 L22.7702188,31.272863 L23.2950893,31.1609459 L23.2717501,31.0514894 Z M23.028342,26.2419237 L22.9309327,26.7844107 L23.041088,26.8041903 L23.1384974,26.2617033 L23.028342,26.2419237 Z M22.7458866,12.1152877 L22.8863011,12.6484483 L22.9945279,12.6199454 L22.8541134,12.0867848 L22.7458866,12.1152877 Z M22.9516338,23.9921553 L23.0122555,24.54086 L23.1234958,24.5285701 L23.062874,23.9798654 L22.9516338,23.9921553 Z M22.8624625,18.6716801 L22.9816335,19.210022 L23.0909053,19.1858329 L22.9717344,18.6474909 L22.8624625,18.6716801 Z M23.1030489,6.04296016 L23.0004582,6.58492907 L23.1104226,6.60574451 L23.2130133,6.0637756 L23.1030489,6.04296016 Z M22.9144369,7.66390964 L23.1999292,8.13074902 L23.2954076,8.07235979 L23.0099154,7.60552041 L22.9144369,7.66390964 Z M23.4806751,29.0534122 L23.0257528,29.345122 L23.0861643,29.4393339 L23.5410866,29.1476241 L23.4806751,29.0534122 Z M23.509104,29.9371171 L23.0857879,30.2754591 L23.1556628,30.3628829 L23.5789789,30.0245409 L23.509104,29.9371171 Z M23.2873986,27.9751444 L23.1905074,28.5181496 L23.3006843,28.537809 L23.3975755,27.9948038 L23.2873986,27.9751444 Z M23.6738294,32.0528973 L23.1712388,31.8611875 L23.1313519,31.9657555 L23.6339426,32.1574654 L23.6738294,32.0528973 Z M23.0880222,7.01807187 L23.6232553,7.04346047 L23.6285581,6.93166907 L23.093325,6.90628047 L23.0880222,7.01807187 Z M23.122833,16.2836068 L23.2725739,16.8136586 L23.3802758,16.7832326 L23.2305349,16.2531808 L23.122833,16.2836068 Z M23.7545107,33.7709247 L23.2234226,33.8393184 L23.2377173,33.9503189 L23.7688054,33.8819251 L23.7545107,33.7709247 Z M23.3314446,26.9042339 L23.3936207,27.4524205 L23.5048249,27.4398075 L23.4426487,26.891621 L23.3314446,26.9042339 Z M23.4005206,25.2233228 L23.405702,25.7756545 L23.5176141,25.7746046 L23.5124327,25.222273 L23.4005206,25.2233228 Z M23.5853191,10.8518926 L23.4635574,11.3897164 L23.572712,11.4144287 L23.6944737,10.8766048 L23.5853191,10.8518926 Z M23.4467839,8.66987746 L23.3338306,9.2092557 L23.4433715,9.23219508 L23.5563249,8.69281684 L23.4467839,8.66987746 Z M23.1994103,21.4772524 L23.3781668,21.9974597 L23.4840094,21.9610895 L23.3052529,21.4408823 L23.1994103,21.4772524 Z M23.3630737,24.3255265 L23.4615193,24.8685317 L23.5716413,24.8485668 L23.4731957,24.3055616 L23.3630737,24.3255265 Z M23.4238525,23.2269006 L23.5000183,23.7730146 L23.6108625,23.7575553 L23.5346967,23.2114413 L23.4238525,23.2269006 Z M23.5244324,25.9508925 L23.4948988,26.5021879 L23.6066556,26.5081748 L23.6361893,25.9568795 L23.5244324,25.9508925 Z M23.6202136,9.49669472 L23.6285037,10.0490263 L23.7404082,10.0473467 L23.732118,9.49501513 L23.6202136,9.49669472 Z M23.5840327,7.94626347 L23.6161571,8.49704067 L23.7278844,8.49052409 L23.69576,7.93974689 L23.5840327,7.94626347 Z M23.4365295,6.26589886 L23.9593275,6.38766052 L23.984714,6.27866073 L23.4619161,6.15689907 L23.4365295,6.26589886 Z M23.9708362,30.8207632 L23.5257585,31.127499 L23.5892674,31.2196513 L24.0343451,30.9129155 L23.9708362,30.8207632 Z M23.5518173,20.1860862 L23.7005219,20.7166562 L23.8082864,20.6864526 L23.6595817,20.1558827 L23.5518173,20.1860862 Z M23.6771633,14.9509334 L23.7807903,15.4923841 L23.8907123,15.4713464 L23.7870854,14.9298956 L23.6771633,14.9509334 Z M23.7404382,6.98867477 L23.7565004,7.54048824 L23.8683701,7.53723197 L23.8523079,6.9854185 L23.7404382,6.98867477 Z M24.1671183,32.7199892 L23.6432841,32.8365695 L23.6675967,32.9458139 L24.1914309,32.8292336 L24.1671183,32.7199892 Z M23.7129657,22.4926474 L23.8191833,23.0335801 L23.9290032,23.0120158 L23.8227856,22.4710832 L23.7129657,22.4926474 Z M23.8259423,28.3486275 L23.8456315,28.900441 L23.9574774,28.8964502 L23.9377882,28.3446367 L23.8259423,28.3486275 Z M23.7616268,24.705331 L23.9263936,25.2312377 L24.0331919,25.1977778 L23.868425,24.6718711 L23.7616268,24.705331 Z M23.8637704,27.4759564 L23.9943404,28.0111896 L24.103069,27.9846653 L23.972499,27.4494322 L23.8637704,27.4759564 Z M23.962788,23.5398583 L24.0441351,24.0854541 L24.1548286,24.06895 L24.0734815,23.5233541 L23.962788,23.5398583 Z M24.2602633,29.8968809 L23.882025,30.2885907 L23.9625346,30.3663316 L24.340773,29.9746217 L24.2602633,29.8968809 Z M24.1849152,13.2032083 L24.1144489,13.7498404 L24.2254475,13.7641492 L24.2959138,13.2175171 L24.1849152,13.2032083 Z M24.039467,25.5295754 L24.0705551,26.0808708 L24.1822947,26.0745696 L24.1512066,25.5232743 L24.039467,25.5295754 Z M24.1492244,17.6332588 L24.1450793,18.1855904 L24.2569933,18.1864303 L24.2611383,17.6340987 L24.1492244,17.6332588 Z M24.0334991,26.4999274 L24.0941208,27.048632 L24.205361,27.0363421 L24.1447393,26.4876374 L24.0334991,26.4999274 Z M24.3942741,31.7104841 L23.9450513,32.0110022 L24.0072803,32.1040237 L24.4565031,31.8035055 L24.3942741,31.7104841 Z M24.0206258,6.26840109 L24.2796931,6.75182078 L24.378338,6.69895642 L24.1192706,6.21553674 L24.0206258,6.26840109 Z M24.0559436,7.88631549 L24.3927311,8.31636731 L24.480844,8.24736326 L24.1440564,7.81731145 L24.0559436,7.88631549 Z M24.0907256,21.6599439 L24.2218137,22.1951771 L24.3305179,22.1685535 L24.1994298,21.6333203 L24.0907256,21.6599439 Z M24.1802555,24.1524291 L24.3595302,24.6726364 L24.4653403,24.6361719 L24.2860657,24.1159647 L24.1802555,24.1524291 Z M24.6750068,33.6486595 L24.1480638,33.7491777 L24.1690347,33.8591125 L24.6959777,33.7585944 L24.6750068,33.6486595 Z M24.2737824,29.0144485 L24.4110881,29.5486454 L24.5194819,29.5207847 L24.3821762,28.9865878 L24.2737824,29.0144485 Z M24.3016229,7.07547751 L24.5337473,7.57288684 L24.6351647,7.52555876 L24.4030403,7.02814943 L24.3016229,7.07547751 Z M24.3994706,23.0168787 L24.5046519,23.5588476 L24.6145191,23.5375254 L24.5093377,22.9955565 L24.3994706,23.0168787 Z M24.7743856,30.7941512 L24.3852665,31.173944 L24.4634382,31.2540353 L24.8525574,30.8742425 L24.7743856,30.7941512 Z M24.4045045,24.9758707 L24.5951781,25.4919328 L24.7001587,25.4531449 L24.5094851,24.9370827 L24.4045045,24.9758707 Z M24.8816141,6.1246687 L24.4101116,6.38684487 L24.4644998,6.48465772 L24.9360024,6.22248155 L24.8816141,6.1246687 Z M24.5949123,25.8123972 L24.6762595,26.357993 L24.786953,26.3414889 L24.7056058,25.795893 L24.5949123,25.8123972 Z M24.5396993,28.1335242 L24.777005,28.6283429 L24.8779173,28.5799473 L24.6406116,28.0851286 L24.5396993,28.1335242 Z M24.671167,19.2449312 L24.7157266,19.7951903 L24.8272785,19.7861569 L24.782719,19.2358978 L24.671167,19.2449312 Z M24.6075312,27.1787401 L24.7655623,27.7067194 L24.8727797,27.6746278 L24.7147486,27.1466485 L24.6075312,27.1787401 Z M25.0403853,32.7112451 L24.5409034,32.9107269 L24.5824126,33.0146617 L25.0818945,32.8151798 L25.0403853,32.7112451 Z M24.6473395,8.25656352 L24.8820545,8.75293658 L24.9832305,8.70509451 L24.7485154,8.20872145 L24.6473395,8.25656352 Z M24.580196,20.5336025 L24.7579162,21.0548461 L24.8638454,21.0187291 L24.6861252,20.4974855 L24.580196,20.5336025 Z M24.7274649,22.4399722 L24.8761696,22.9705422 L24.983934,22.9403387 L24.8352294,22.4097687 L24.7274649,22.4399722 Z M24.7397974,24.0856584 L24.9449788,24.595503 L25.0488036,24.5537198 L24.8436223,24.0438752 L24.7397974,24.0856584 Z M24.839715,29.8475856 L24.9816839,30.3797099 L25.0898187,30.35086 L24.9478497,29.8187356 L24.839715,29.8475856 Z M24.8798047,10.3345956 L24.8684057,10.8864091 L24.980299,10.8887205 L24.9916979,10.336907 L24.8798047,10.3345956 Z M24.8513167,23.4094648 L25.0005395,23.9395166 L25.1082688,23.9091881 L24.959046,23.3791363 L24.8513167,23.4094648 Z M25.2436516,31.7306773 L24.7700765,31.9892265 L24.8237059,32.0874575 L25.297281,31.8289082 L25.2436516,31.7306773 Z M24.784549,26.5044016 L25.0560516,26.9805674 L25.1532749,26.9251321 L24.8817723,26.4489663 L24.784549,26.5044016 Z M24.9790892,21.4739688 L25.0391928,22.0226734 L25.1504445,22.0104872 L25.0903409,21.4617825 L24.9790892,21.4739688 Z M25.1133299,9.08522285 L24.9221382,9.60128503 L25.0270846,9.64016575 L25.2182763,9.12410358 L25.1133299,9.08522285 Z M24.8448887,7.1697085 L25.3215726,7.42100383 L25.3737641,7.32200135 L24.8970802,7.07070601 L24.8448887,7.1697085 Z M24.911377,24.8048638 L25.2714806,25.2136721 L25.3554624,25.1396958 L24.9953588,24.7308875 L24.911377,24.8048638 Z M25.0367962,6.32409306 L25.4658117,6.65518114 L25.5341883,6.56658052 L25.1051727,6.23549244 L25.0367962,6.32409306 Z M25.3405251,14.179903 L25.3058101,14.7311983 L25.417506,14.7382318 L25.452221,14.1869364 L25.3405251,14.179903 Z M25.1363281,28.9743938 L25.3979861,29.4557409 L25.4963144,29.4022902 L25.2346564,28.920943 L25.1363281,28.9743938 Z M25.1393185,25.4719915 L25.3325828,25.9870174 L25.4373654,25.9476976 L25.2441011,25.4326717 L25.1393185,25.4719915 Z M25.3051893,12.0544948 L25.2958629,12.6063082 L25.407764,12.6081995 L25.4170905,12.0563861 L25.3051893,12.0544948 Z M25.4706001,17.9339054 L25.5545379,18.4789831 L25.6651512,18.4619495 L25.5812134,17.9168718 L25.4706001,17.9339054 Z M25.3118181,30.7809952 L25.5169995,31.2908398 L25.6208244,31.2490566 L25.415643,30.739212 L25.3118181,30.7809952 Z M25.3932663,16.3367423 L25.3979295,16.8885558 L25.5098425,16.8876101 L25.5051793,16.3357966 L25.3932663,16.3367423 Z M25.3421526,22.5406363 L25.4566604,23.0800146 L25.5661376,23.056773 L25.4516298,22.5173948 L25.3421526,22.5406363 Z M25.2430873,27.707923 L25.5928282,28.1260577 L25.6786744,28.0542532 L25.3289334,27.6361185 L25.2430873,27.707923 Z M25.3759977,23.3642422 L25.5796246,23.875123 L25.6835878,23.8336853 L25.4799609,23.3228045 L25.3759977,23.3642422 Z M25.4043856,24.1214341 L25.6603441,24.6069263 L25.759345,24.5547317 L25.5033864,24.0692395 L25.4043856,24.1214341 Z M25.469615,32.8291081 L25.6690968,33.3415433 L25.7733902,33.3009437 L25.5739083,32.7885085 L25.469615,32.8291081 Z M25.396639,7.61850456 L25.8935302,7.82524031 L25.9365217,7.72190995 L25.4396305,7.5151742 L25.396639,7.61850456 Z M25.6278918,21.9267184 L25.7532804,22.463506 L25.8622637,22.4380484 L25.7368751,21.9012609 L25.6278918,21.9267184 Z M25.4195453,26.4017699 L25.9288717,26.5722363 L25.9643925,26.4661057 L25.4550661,26.2956394 L25.4195453,26.4017699 Z M25.6076909,21.1589645 L25.8253075,21.6631095 L25.9280604,21.6187558 L25.7104438,21.1146107 L25.6076909,21.1589645 Z M25.7451919,20.255904 L25.780425,20.8066812 L25.8921138,20.7995364 L25.8568807,20.2487592 L25.7451919,20.255904 Z M25.4968552,27.0447744 L25.9497049,27.3406293 L26.0109168,27.2469354 L25.5580671,26.9510805 L25.4968552,27.0447744 Z M25.6300372,8.43215591 L26.0471356,8.77878803 L26.1186675,8.69271456 L25.701569,8.34608244 L25.6300372,8.43215591 Z M25.6118128,30.0378121 L26.1283931,30.1828898 L26.1586535,30.0751413 L25.6420732,29.9300636 L25.6118128,30.0378121 Z M25.6825832,6.32991321 L26.039578,6.74183031 L26.1241525,6.66853238 L25.7671577,6.25661528 L25.6825832,6.32991321 Z M25.7433831,31.7400279 L26.1076318,32.1446911 L26.1908138,32.0698166 L25.8265651,31.6651534 L25.7433831,31.7400279 Z M25.6042585,24.9629968 L26.0477819,25.2723233 L26.1118036,25.1805265 L25.6682803,24.8712001 L25.6042585,24.9629968 Z M25.8317597,28.3223541 L26.1364229,28.7767583 L26.2293802,28.7144334 L25.924717,28.2600293 L25.8317597,28.3223541 Z M25.8055602,23.0371506 L26.0729177,23.515389 L26.1706056,23.4607768 L25.9032481,22.9825385 L25.8055602,23.0371506 Z M25.8681718,19.1456422 L26.026721,19.6731034 L26.1339007,19.6408863 L25.9753515,19.1134251 L25.8681718,19.1456422 Z M25.8278205,25.8471844 L26.3355925,26.0228321 L26.3721795,25.9170643 L25.8644075,25.7414166 L25.8278205,25.8471844 Z M26.0066361,23.8766912 L26.2657035,24.3601109 L26.3643483,24.3072466 L26.105281,23.8238269 L26.0066361,23.8766912 Z M26.2104606,22.5766021 L26.4638284,23.0636488 L26.5631146,23.0119989 L26.3097467,22.5249523 L26.2104606,22.5766021 Z M26.1427527,7.16540824 L26.5313538,7.54520098 L26.6095789,7.46516171 L26.2209778,7.08536896 L26.1427527,7.16540824 Z M26.1570189,24.6672295 L26.6347391,24.9164523 L26.6865045,24.8172264 L26.2087842,24.5680036 L26.1570189,24.6672295 Z M26.2799364,22.085999 L26.6182784,22.5139783 L26.7060739,22.4445709 L26.367732,22.0165917 L26.2799364,22.085999 Z M26.0743916,31.0741676 L26.6059978,31.0068101 L26.5919297,30.8957806 L26.0603235,30.9631381 L26.0743916,31.0741676 Z M26.7201807,13.0925815 L26.5554139,13.6179701 L26.6622027,13.65146 L26.8269695,13.1260714 L26.7201807,13.0925815 Z M26.1792041,27.5507223 L26.6144373,27.8719658 L26.6808995,27.7819202 L26.2456663,27.4606767 L26.1792041,27.5507223 Z M26.2848338,21.4281108 L26.6490825,21.832774 L26.7322646,21.7578995 L26.3680159,21.3532363 L26.2848338,21.4281108 Z M26.5259912,9.70430223 L26.3746959,10.2333178 L26.4822989,10.2640916 L26.6335942,9.73507601 L26.5259912,9.70430223 Z M26.225587,32.8040156 L26.7556389,32.7226685 L26.7386617,32.6120465 L26.2086098,32.6933937 L26.225587,32.8040156 Z M26.1352874,33.6114012 L26.6518677,33.4668417 L26.6217075,33.3590651 L26.1051272,33.5036247 L26.1352874,33.6114012 Z M26.5679256,11.0142158 L26.5446096,11.5655111 L26.6564267,11.5702402 L26.6797427,11.0189449 L26.5679256,11.0142158 Z M26.5339946,20.5898751 L26.5925438,21.1385798 L26.7038292,21.1267052 L26.64528,20.5780005 L26.5339946,20.5898751 Z M26.7108209,15.8761208 L26.6082303,16.4180897 L26.7181946,16.4389051 L26.8207853,15.8969362 L26.7108209,15.8761208 Z M26.4078262,23.6225666 L26.7689661,24.0308567 L26.8527956,23.956708 L26.4916557,23.5484179 L26.4078262,23.6225666 Z M26.4886982,6.40064715 L26.6985428,6.90841917 L26.8019753,6.86567409 L26.5921308,6.35790207 L26.4886982,6.40064715 Z M26.3671027,29.3357029 L26.9023359,29.3579827 L26.9069906,29.2461624 L26.3717574,29.2238826 L26.3671027,29.3357029 Z M26.408422,26.6403281 L26.8959867,26.8683074 L26.9433915,26.7669258 L26.4558267,26.5389465 L26.408422,26.6403281 Z M26.3886509,25.5851513 L26.9212934,25.6442187 L26.9336289,25.5329834 L26.4009864,25.4739161 L26.3886509,25.5851513 Z M26.6349097,23.1187098 L27.0183294,23.5047202 L27.0977327,23.4258497 L26.7143131,23.0398394 L26.6349097,23.1187098 Z M27.027801,8.5675456 L26.800858,9.0675456 L26.9027689,9.11380155 L27.1297119,8.61380155 L27.027801,8.5675456 Z M27.1170761,19.0081685 L26.7626719,19.4221582 L26.8476908,19.4949403 L27.2020949,19.0809506 L27.1170761,19.0081685 Z M26.6807444,7.89144394 L27.2045786,8.00646984 L27.228582,7.8971571 L26.7047478,7.78213119 L26.6807444,7.89144394 Z M26.9705741,20.1376823 L27.0814549,20.6775787 L27.1910839,20.6550638 L27.0802031,20.1151674 L26.9705741,20.1376823 Z M26.8937731,21.5469018 L27.3611306,21.8168499 L27.4171077,21.7199376 L26.9497502,21.4499894 L26.8937731,21.5469018 Z M27.0055673,22.6042744 L27.3205932,23.0509065 L27.4120493,22.9863992 L27.0970234,22.539767 L27.0055673,22.6042744 Z M26.9226588,24.4591641 L27.4169593,24.2462108 L27.372678,24.1434265 L26.8783775,24.3563799 L26.9226588,24.4591641 Z M26.9424146,25.0732915 L27.4755752,25.0194055 L27.4643212,24.9080556 L26.9311606,24.9619417 L26.9424146,25.0732915 Z M26.9254244,22.2133974 L27.4368234,22.377128 L27.4709487,22.2705404 L26.9595497,22.1068098 L26.9254244,22.2133974 Z M27.0273351,28.1147477 L27.5604957,28.0613798 L27.5493489,27.9500192 L27.0161882,28.003387 L27.0273351,28.1147477 Z M27.1615855,26.2873696 L27.5667668,25.9262297 L27.4923005,25.8426822 L27.0871192,26.2038221 L27.1615855,26.2873696 Z M27.2994708,6.51477005 L27.373564,7.06140218 L27.484467,7.04636984 L27.4103738,6.49973772 L27.2994708,6.51477005 Z M27.2609707,23.7918399 L27.7744422,23.634327 L27.74162,23.527331 L27.2281485,23.684844 L27.2609707,23.7918399 Z M27.276759,21.0109867 L27.6943755,21.3565825 L27.7657281,21.2703605 L27.3481115,20.9247646 L27.276759,21.0109867 Z M27.6592079,17.0973719 L27.50584,17.6263875 L27.613331,17.6575504 L27.7666989,17.1285348 L27.6592079,17.0973719 Z M27.8633603,7.27079057 L27.3773499,7.50395119 L27.4257589,7.6048571 L27.9117693,7.37169648 L27.8633603,7.27079057 Z M27.2377264,32.3861928 L27.7698507,32.3276436 L27.7576104,32.2163979 L27.2254861,32.2749471 L27.2377264,32.3861928 Z M27.7795397,19.3683621 L27.6059646,19.8906419 L27.7121701,19.9259384 L27.8857452,19.4036586 L27.7795397,19.3683621 Z M27.3990617,29.9550364 L27.7581291,29.54571 L27.6739953,29.4719066 L27.3149279,29.881233 L27.3990617,29.9550364 Z M27.4214541,31.1469293 L27.8411433,30.803406 L27.7702557,30.7168012 L27.3505666,31.0603246 L27.4214541,31.1469293 Z M28.0476576,15.5092527 L27.7782276,15.9859367 L27.8756584,16.0410063 L28.1450885,15.5643224 L28.0476576,15.5092527 Z M27.6235355,27.3470107 L28.0390796,26.9983061 L27.967138,26.9125748 L27.551594,27.2612794 L27.6235355,27.3470107 Z M27.5528844,22.4245759 L28.086045,22.3696536 L28.0745768,22.2583256 L27.5414162,22.3132479 L27.5528844,22.4245759 Z M27.5902639,23.2146518 L28.1177251,23.119315 L28.097819,23.0091824 L27.5703578,23.1045192 L27.5902639,23.2146518 Z M28.028768,12.2489116 L27.8272136,12.7603105 L27.9313356,12.8013475 L28.1328901,12.2899485 L28.028768,12.2489116 Z M27.9960632,10.226788 L27.7504673,10.7179797 L27.850569,10.7680306 L28.0961648,10.2768389 L27.9960632,10.226788 Z M27.722889,8.70769601 L28.0109719,9.17298098 L28.1061266,9.11406565 L27.8180437,8.64878067 L27.722889,8.70769601 Z M28.1674084,20.2869404 L27.6591182,20.4605155 L27.6952859,20.5664275 L28.2035761,20.3928523 L28.1674084,20.2869404 Z M28.040712,18.0298242 L27.9210229,18.5681662 L28.0302724,18.5924555 L28.1499616,18.0541136 L28.040712,18.0298242 Z M27.7846179,25.4728317 L28.1063795,25.0308627 L28.0159003,24.9649922 L27.6941386,25.4069611 L27.7846179,25.4728317 Z M27.8141586,24.6082375 L28.1421379,24.1719681 L28.0526808,24.1047159 L27.7247015,24.5409853 L27.8141586,24.6082375 Z M27.7714854,21.8518686 L28.2751124,21.6627494 L28.2357684,21.557976 L27.7321415,21.7470951 L27.7714854,21.8518686 Z M28.2196514,21.2392254 L28.4015167,20.7200544 L28.2958926,20.6830544 L28.1140274,21.2022254 L28.2196514,21.2392254 Z M27.7309535,33.4062035 L28.1812126,33.1072398 L28.1193055,33.0140037 L27.6690465,33.3129675 L27.7309535,33.4062035 Z M28.4988777,14.148625 L28.2491368,14.637226 L28.3487907,14.6881626 L28.5985316,14.1995616 L28.4988777,14.148625 Z M28.6091199,8.13977052 L28.105493,7.95272389 L28.0665277,8.05763881 L28.5701547,8.24468544 L28.6091199,8.13977052 Z M28.5736259,19.9761465 L28.2648176,19.5253693 L28.1724881,19.5886204 L28.4812964,20.0393976 L28.5736259,19.9761465 Z M28.3628644,6.85315285 L28.3198592,7.40341192 L28.4314361,7.41213212 L28.4744413,6.86187306 L28.3628644,6.85315285 Z M28.3332522,23.9525161 L28.5384336,23.4431897 L28.4346234,23.4013699 L28.2294421,23.9106963 L28.3332522,23.9525161 Z M28.2861989,22.9883054 L28.6266134,22.5623987 L28.5391897,22.4925236 L28.1987752,22.9184303 L28.2861989,22.9883054 Z M28.3038102,26.4941318 L28.6504423,26.0734064 L28.5640655,26.0022412 L28.2174334,26.4229666 L28.3038102,26.4941318 Z M28.4885117,22.3570066 L28.6569054,21.8326542 L28.5503484,21.7984338 L28.3819547,22.3227862 L28.4885117,22.3570066 Z M28.3465013,29.2492042 L28.6003873,28.7626757 L28.5011671,28.7108994 L28.2472811,29.1974279 L28.3465013,29.2492042 Z M28.820458,21.5012717 L28.766572,20.9520489 L28.6551897,20.962977 L28.7090757,21.5121998 L28.820458,21.5012717 Z M29.063967,19.135927 L28.5582675,18.9545798 L28.520489,19.0599279 L29.0261884,19.2412751 L29.063967,19.135927 Z M28.6826277,25.4354869 L28.9391044,24.9505128 L28.8401703,24.8981919 L28.5836936,25.383166 L28.6826277,25.4354869 Z M28.820531,20.4546763 L28.9355569,19.915298 L28.8261011,19.8919559 L28.7110752,20.4313341 L28.820531,20.4546763 Z M28.739507,24.6196849 L28.9882117,24.1310839 L28.8884722,24.0803151 L28.6397676,24.5689161 L28.739507,24.6196849 Z M29.178537,9.73537269 L28.762993,10.0840774 L28.8349345,10.1698087 L29.2504785,9.82110399 L29.178537,9.73537269 Z M29.2946168,17.6119335 L28.7588655,17.5989801 L28.7561604,17.7108645 L29.2919117,17.7238178 L29.2946168,17.6119335 Z M28.7799349,8.53575435 L29.0338209,9.02176472 L29.1330185,8.96994513 L28.8791325,8.48393477 L28.7799349,8.53575435 Z M29.0271886,22.1889358 L29.0815927,21.639713 L28.9702207,21.6286808 L28.9158166,22.1779036 L29.0271886,22.1889358 Z M28.9661242,20.9664291 L29.2210465,20.4809368 L29.1219587,20.4289077 L28.8670364,20.9143999 L28.9661242,20.9664291 Z M28.5836349,32.6931948 L29.0525468,32.4263554 L28.9971941,32.329085 L28.5282822,32.5959244 L28.5836349,32.6931948 Z M28.8993788,23.4533115 L29.1429021,22.9610835 L29.0425901,22.9114554 L28.7990668,23.4036834 L28.8993788,23.4533115 Z M28.8361404,7.50686016 L29.3542751,7.64727466 L29.3835488,7.53925383 L28.865414,7.39883933 L28.8361404,7.50686016 Z M28.9023502,31.1644393 L29.1583087,30.678947 L29.0593079,30.6267524 L28.8033493,31.1122447 L28.9023502,31.1644393 Z M29.5556947,11.3062652 L29.053104,11.1145553 L29.0132172,11.2191234 L29.5158079,11.4108333 L29.5556947,11.3062652 Z M29.5858516,19.4937731 L29.2081314,19.1025813 L29.1276199,19.1803202 L29.5053401,19.5715119 L29.5858516,19.4937731 Z M29.701031,12.7245326 L29.1714974,12.8089886 L29.1891244,12.9195088 L29.7186581,12.8350528 L29.701031,12.7245326 Z M29.390524,22.9705265 L29.5034774,22.4306302 L29.393932,22.4077118 L29.2809786,22.9476082 L29.390524,22.9705265 Z M29.4754294,21.84857 L29.5914916,21.3097099 L29.4820835,21.286145 L29.3660213,21.8250051 L29.4754294,21.84857 Z M29.3643089,24.1410028 L29.5938426,23.6420391 L29.4921678,23.5952666 L29.2626341,24.0942303 L29.3643089,24.1410028 Z M30.0435368,14.8225694 L29.5108943,14.8769736 L29.5222663,14.9883114 L30.0549088,14.9339073 L30.0435368,14.8225694 Z M29.6766809,20.2001526 L29.6015514,19.6535205 L29.4906766,19.6687593 L29.5658061,20.2153914 L29.6766809,20.2001526 Z M30.0357456,16.7506127 L29.5077663,16.6563122 L29.4880886,16.7664858 L30.0160679,16.8607863 L30.0357456,16.7506127 Z M29.4926389,7.60171912 L29.8081829,8.04835124 L29.8995891,7.98377311 L29.5840451,7.53714098 L29.4926389,7.60171912 Z M29.9366782,8.94649347 L29.4900461,8.64234839 L29.4270523,8.73485368 L29.8736845,9.03899876 L29.9366782,8.94649347 Z M29.6977146,21.3117906 L29.8697353,20.7889926 L29.7634253,20.7540125 L29.5914046,21.2768105 L29.6977146,21.3117906 Z M30.0155099,18.8496475 L29.6662872,18.4309947 L29.580345,18.5026841 L29.9295678,18.9213369 L30.0155099,18.8496475 Z M30.1480732,17.9258461 L29.6164669,17.8574523 L29.6021859,17.9684545 L30.1337921,18.0368482 L30.1480732,17.9258461 Z M29.7072216,27.2994844 L29.8144755,26.7585518 L29.7046955,26.736785 L29.5974416,27.2777177 L29.7072216,27.2994844 Z M29.6082835,25.4117713 L29.9108741,24.9558128 L29.8176233,24.8939281 L29.5150326,25.3498867 L29.6082835,25.4117713 Z M29.8700415,20.7286442 L29.9379171,20.1809759 L29.8268497,20.1672107 L29.7589741,20.7148791 L29.8700415,20.7286442 Z M29.8860745,22.3941756 L30.0124993,21.857388 L29.9035628,21.8317311 L29.777138,22.3685187 L29.8860745,22.3941756 Z M29.5394056,32.346396 L29.9394056,31.9790384 L29.8637032,31.8966092 L29.4637032,32.2639667 L29.5394056,32.346396 Z M30.1725353,19.6035146 L30.1663177,19.0517011 L30.0544077,19.0529621 L30.0606253,19.6047755 L30.1725353,19.6035146 Z M30.1737782,23.2923372 L30.3328455,22.7653941 L30.2257037,22.7330515 L30.0666363,23.2599945 L30.1737782,23.2923372 Z M30.1903048,7.88031171 L30.3887504,8.39274694 L30.4931149,8.35233078 L30.2946693,7.83989554 L30.1903048,7.88031171 Z M30.6710383,10.2535378 L30.1694839,10.0587191 L30.1289617,10.1630425 L30.6305161,10.3578612 L30.6710383,10.2535378 Z M30.3009322,24.2047141 L30.4340928,23.6699991 L30.3254926,23.6429542 L30.192332,24.1776693 L30.3009322,24.2047141 Z M30.0380167,29.3617882 L30.227654,28.8457261 L30.122605,28.8071237 L29.9329677,29.3231859 L30.0380167,29.3617882 Z M30.4959672,21.8860019 L30.5622884,21.3383335 L30.4511831,21.3248789 L30.3848618,21.8725473 L30.4959672,21.8860019 Z M30.5149735,20.5736788 L30.6232636,20.0327461 L30.5135239,20.0107772 L30.4052338,20.5517098 L30.5149735,20.5736788 Z M30.5609355,8.96123751 L30.3583449,9.47211834 L30.4623805,9.51337389 L30.6649712,9.00249306 L30.5609355,8.96123751 Z M30.8791939,11.586362 L30.4367068,11.897761 L30.501117,11.9892856 L30.943604,11.6778867 L30.8791939,11.586362 Z M30.8793978,18.4693367 L30.5944237,18.001461 L30.4988406,18.0596789 L30.7838147,18.5275545 L30.8793978,18.4693367 Z M30.8393327,19.9183197 L30.8616125,19.3665062 L30.7497865,19.3619912 L30.7275067,19.9138047 L30.8393327,19.9183197 Z M31.0972224,15.8288065 L30.5785696,15.6915008 L30.5499278,15.7996909 L31.0685807,15.9369966 L31.0972224,15.8288065 Z M31.0887259,13.8349898 L30.5643735,13.7194458 L30.5402897,13.8287408 L31.064642,13.9442848 L31.0887259,13.8349898 Z M30.7627552,21.2394595 L30.9420298,20.7187341 L30.8362085,20.6823021 L30.6569339,21.2030275 L30.7627552,21.2394595 Z M31.0168279,17.3717095 L30.8152735,16.8603105 L30.7111514,16.9013475 L30.9127058,17.4127465 L31.0168279,17.3717095 Z M30.9544332,22.6281862 L31.0585782,22.0867354 L30.9486756,22.0655962 L30.8445306,22.607047 L30.9544332,22.6281862 Z M31.1177157,19.2013108 L30.9928452,18.6645232 L30.8838387,18.6898809 L31.0087092,19.2266685 L31.1177157,19.2013108 Z M30.9486824,25.2471022 L31.0554181,24.7061695 L30.9456181,24.684504 L30.8388824,25.2254367 L30.9486824,25.2471022 Z M31.3349774,8.41304596 L30.8660654,8.68040347 L30.9214993,8.77762762 L31.3904112,8.5102701 L31.3349774,8.41304596 Z M30.935891,31.8748445 L31.2120568,31.4017875 L31.1154044,31.3453628 L30.8392385,31.8184198 L30.935891,31.8748445 Z M31.071841,30.6718303 L31.2837581,30.1645764 L31.1804906,30.121434 L30.9685735,30.6286879 L31.071841,30.6718303 Z M31.6103485,23.471727 L31.6227837,22.9199136 L31.510895,22.9173921 L31.4984598,23.4692056 L31.6103485,23.471727 Z M31.688807,10.0148781 L31.2515013,10.3335309 L31.3174106,10.423982 L31.7547163,10.1053292 L31.688807,10.0148781 Z M31.6315953,20.3731239 L31.6424762,19.8213105 L31.5305808,19.819104 L31.5197,20.3709175 L31.6315953,20.3731239 Z M31.6712091,17.9170739 L31.6147324,17.3678511 L31.5034023,17.3792992 L31.559879,17.928522 L31.6712091,17.9170739 Z M31.6781058,21.2017732 L31.7620436,20.6561773 L31.6514279,20.6391595 L31.5674901,21.1847553 L31.6781058,21.2017732 Z M31.7940633,18.9984802 L31.7432861,18.4487393 L31.6318434,18.4590327 L31.6826206,19.0087737 L31.7940633,18.9984802 Z M31.9251887,8.92916627 L31.4904736,9.2519642 L31.5571948,9.34181819 L31.9919098,9.01902026 L31.9251887,8.92916627 Z M31.4526951,27.927029 L31.6065811,27.3980134 L31.4991183,27.3667534 L31.3452323,27.895769 L31.4526951,27.927029 Z M32.1340123,15.9797489 L31.7459294,15.5989199 L31.6675421,15.6788003 L32.055625,16.0596293 L32.1340123,15.9797489 Z M32.187837,11.5192254 L31.6857645,11.3275155 L31.6458418,11.4320699 L32.1479143,11.6237798 L32.187837,11.5192254 Z M32.2104009,12.8553655 L31.7207636,12.630495 L31.674055,12.7321993 L32.1636923,12.9570697 L32.2104009,12.8553655 Z M31.8438721,22.1096372 L31.9796234,21.5754403 L31.8711538,21.5478758 L31.7354025,22.0820726 L31.8438721,22.1096372 Z M32.1184827,19.7727539 L32.1614879,19.2224948 L32.049911,19.2137746 L32.0069059,19.7640337 L32.1184827,19.7727539 Z M32.3603344,14.2624027 L32.0142204,13.8411592 L31.9277485,13.9122087 L32.2738625,14.3334522 L32.3603344,14.2624027 Z M32.6376601,9.59932876 L32.1050176,9.66046865 L32.1177803,9.7716557 L32.6504228,9.7105158 L32.6376601,9.59932876 Z M32.4554182,18.0393995 L32.4709623,17.487586 L32.3590895,17.4844347 L32.3435455,18.0362482 L32.4554182,18.0393995 Z M32.3553361,25.9681822 L32.3890149,25.417405 L32.2773064,25.4105743 L32.2436276,25.9613515 L32.3553361,25.9681822 Z M32.7686012,16.7242577 L32.6095339,16.1967966 L32.5023832,16.2291102 L32.6614506,16.7565713 L32.7686012,16.7242577 Z M32.8030922,24.1110708 L32.7896207,23.5587392 L32.6777368,23.5614681 L32.6912083,24.1137997 L32.8030922,24.1110708 Z M32.8454608,18.7474094 L32.8838027,18.1966322 L32.7721558,18.18886 L32.7338138,18.7396372 L32.8454608,18.7474094 Z M33.111726,11.2764822 L32.6930731,10.9319226 L32.6219528,11.0183364 L33.0406056,11.362896 L33.111726,11.2764822 Z M33.0376738,21.0161122 L32.9972593,20.465335 L32.8856423,20.4735251 L32.9260568,21.0243023 L33.0376738,21.0161122 Z M32.986982,19.7737395 L33.0957903,19.233325 L32.986075,19.2112346 L32.8772667,19.7516491 L32.986982,19.7737395 Z M33.0882015,15.041511 L33.0223983,14.4938426 L32.9112804,14.5071936 L32.9770835,15.054862 L33.0882015,15.041511 Z M33.2510532,9.88759187 L32.9375817,10.3352603 L33.0292577,10.3994548 L33.3427292,9.95178637 L33.2510532,9.88759187 Z M33.5232091,13.0825903 L33.1916029,12.6489115 L33.1026976,12.7168916 L33.4343038,13.1505704 L33.5232091,13.0825903 Z M33.4795982,17.1026993 L33.3428106,16.5685024 L33.2343915,16.5962645 L33.371179,17.1304613 L33.4795982,17.1026993 Z M33.5181338,22.1613431 L33.515025,21.6090115 L33.4031097,21.6096414 L33.4062185,22.161973 L33.5181338,22.1613431 Z M33.0804493,30.1662206 L33.3084286,29.6662206 L33.2065973,29.6197897 L32.978618,30.1197897 L33.0804493,30.1662206 Z M33.5305155,27.5086848 L33.5548679,26.9568713 L33.4430596,26.951937 L33.4187073,27.5037505 L33.5305155,27.5086848 Z M34.2148587,11.8493949 L33.6899882,11.9602757 L33.7131206,12.0697761 L34.237991,11.9588953 L34.2148587,11.8493949 Z M34.2124989,11.0830519 L33.6876284,10.9732073 L33.6647032,11.0827512 L34.1895736,11.1925958 L34.2124989,11.0830519 Z M34.0695683,15.3823057 L33.926045,14.8506995 L33.8179964,14.8798705 L33.9615197,15.4114767 L34.0695683,15.3823057 Z M34.0504668,17.8930784 L33.9924358,17.3443737 L33.8811394,17.3561444 L33.9391705,17.9048491 L34.0504668,17.8930784 Z M34.1305415,18.8432363 L34.148158,18.2914228 L34.0362979,18.2878518 L34.0186813,18.8396652 L34.1305415,18.8432363 Z M34.3027498,14.102855 L34.1421281,13.575912 L34.035074,13.608544 L34.1956958,14.135487 L34.3027498,14.102855 Z M34.1631378,23.4530698 L34.1346404,22.9017745 L34.0228725,22.907552 L34.0513699,23.4588473 L34.1631378,23.4530698 Z M34.1713325,20.146329 L34.2143377,19.5960699 L34.1027608,19.5873497 L34.0597556,20.1376088 L34.1713325,20.146329 Z M34.4727947,16.4732876 L34.5261625,15.9240648 L34.4147701,15.9132409 L34.3614022,16.4624637 L34.4727947,16.4732876 Z M35.0727124,12.2730191 L34.5934378,12.0269051 L34.5423135,12.1264628 L35.0215881,12.3725768 L35.0727124,12.2730191 Z M34.6752793,28.3395708 L34.7384918,27.7913843 L34.6273113,27.7785639 L34.5640989,28.3267504 L34.6752793,28.3395708 Z M35.199929,15.4272149 L34.9786855,14.9241061 L34.8762368,14.9691582 L35.0974803,15.472267 L35.199929,15.4272149 Z M35.2189478,13.3419662 L35.0811239,12.8082875 L34.9727621,12.8362721 L35.1105859,13.3699509 L35.2189478,13.3419662 Z M35.0287972,25.3873218 L35.0775019,24.8375808 L34.9660215,24.8277041 L34.9173168,25.3774451 L35.0287972,25.3873218 Z M35.3772953,20.7450907 L35.199057,20.2243653 L35.093171,20.2606088 L35.2714093,20.7813342 L35.3772953,20.7450907 Z M35.3882145,17.1317763 L35.3234477,16.5835897 L35.2123036,16.5967211 L35.2770705,17.1449077 L35.3882145,17.1317763 Z M35.4360696,18.1720828 L35.4827017,17.6218238 L35.3711843,17.6123731 L35.3245522,18.1626322 L35.4360696,18.1720828 Z M35.911644,13.7315252 L35.3800378,13.6646859 L35.3660762,13.7757287 L35.8976824,13.842568 L35.911644,13.7315252 Z M35.845521,22.4604069 L35.7361946,21.9199924 L35.6264997,21.9421838 L35.7358261,22.4825983 L35.845521,22.4604069 Z M35.8733233,19.4910702 L35.8209917,18.9413292 L35.7095782,18.951935 L35.7619098,19.501676 L35.8733233,19.4910702 Z M36.2735149,14.5999462 L35.7419087,14.5310342 L35.7275213,14.6420227 L36.2591276,14.7109347 L36.2735149,14.5999462 Z M35.9411357,26.3353423 L36.1002031,25.8083993 L35.9930612,25.7760566 L35.8339938,26.3029996 L35.9411357,26.3353423 Z M36.6066068,15.7357136 L36.3024617,15.2813094 L36.2094554,15.343561 L36.5136005,15.7979652 L36.6066068,15.7357136 Z M36.8968896,16.4239518 L36.3621746,16.3892367 L36.3549239,16.5009187 L36.8896389,16.5356337 L36.8968896,16.4239518 Z M36.8536992,24.3045689 L36.8987769,23.7543098 L36.7872335,23.7451721 L36.7421558,24.2954311 L36.8536992,24.3045689 Z M37.2514873,17.6632504 L36.8400883,17.3098825 L36.7671656,17.3947807 L37.1785646,17.7481486 L37.2514873,17.6632504 Z M37.4465495,19.0583356 L37.1506946,18.598232 L37.0565593,18.6587628 L37.3524142,19.1188664 L37.4465495,19.0583356 Z M37.3022918,22.3988872 L37.2452969,21.8496644 L37.1339777,21.8612164 L37.1909725,22.4104392 L37.3022918,22.3988872 Z M37.3504445,20.5664458 L37.2903409,20.0177411 L37.1790892,20.0299273 L37.2391928,20.578632 L37.3504445,20.5664458 Z M8.94352332,37.1471503 L11.6896373,37.1471503 C12.4497409,37.1471503 12.819171,37.3544041 12.819171,37.9626943 C12.819171,38.4953368 12.6259067,38.5984456 12.3595855,38.6756477 L12.3595855,38.688601 C12.7740933,38.7404145 12.9295337,38.9632124 12.9295337,39.4310881 C12.9295337,40.1139896 12.5259067,40.2559585 11.9803109,40.2559585 L8.94352332,40.2559585 L8.94352332,37.1471503 L8.94352332,37.1471503 Z M9.89637306,38.3792746 L11.5839378,38.3792746 C11.7595855,38.3792746 11.8626943,38.3150259 11.8626943,38.1388601 C11.8626943,37.9626943 11.7590674,37.8943005 11.5839378,37.8943005 L9.89637306,37.8943005 L9.89637306,38.3792746 Z M9.89637306,39.5088083 L11.6062176,39.5088083 C11.8134715,39.5088083 11.9497409,39.461658 11.9497409,39.280829 C11.9497409,39.0704663 11.8124352,39.0217617 11.6062176,39.0217617 L9.89637306,39.0217617 L9.89637306,39.5088083 Z M13.3834197,37.1471503 L16.2606218,37.1471503 C16.9948187,37.1471503 17.1932642,37.5098446 17.1932642,38.0699482 L17.1932642,38.2678756 C17.1932642,38.6823834 17.0989637,38.9290155 16.6611399,39.0321244 L16.6611399,39.0404145 C16.9445596,39.092228 17.1792746,39.2165803 17.1792746,39.7274611 L17.1792746,40.2559585 L16.2264249,40.2559585 L16.2264249,39.8823834 C16.2264249,39.5559585 16.1316062,39.4487047 15.8352332,39.4487047 L14.3367876,39.4487047 L14.3367876,40.2559585 L13.3834197,40.2559585 L13.3834197,37.1471503 L13.3834197,37.1471503 Z M14.3367876,38.6756477 L15.9129534,38.6756477 C16.1720207,38.6756477 16.2647668,38.5720207 16.2647668,38.3492228 L16.2647668,38.2455959 C16.2647668,37.9709845 16.1274611,37.919171 15.826943,37.919171 L14.3367876,37.919171 L14.3367876,38.6756477 L14.3367876,38.6756477 Z M17.6357513,37.1471503 L17.6357513,40.2559585 L21.0362694,40.2559585 L21.0362694,39.5088083 L18.588601,39.5088083 L18.588601,39.0103627 L20.9072539,39.0103627 L20.9072539,38.3663212 L18.588601,38.3663212 L18.588601,37.8683938 L21.0362694,37.8683938 L21.0362694,37.1471503 L17.6357513,37.1471503 Z M30.2108808,37.1471503 L30.2108808,40.2559585 L33.6119171,40.2559585 L33.6119171,39.5088083 L31.1642487,39.5088083 L31.1642487,39.0103627 L33.4829016,39.0103627 L33.4829016,38.3663212 L31.1642487,38.3663212 L31.1642487,37.8683938 L33.6119171,37.8683938 L33.6119171,37.1471503 L30.2108808,37.1471503 Z M23.5487047,37.8683938 L24.1668394,39.0362694 L22.9476684,39.0362694 L23.5487047,37.8683938 Z M22.9305699,37.1471503 L21.2471503,40.2559585 L22.3119171,40.2559585 L22.5906736,39.7062176 L24.5233161,39.7062176 L24.8186528,40.2559585 L25.8792746,40.2559585 L24.1694301,37.1471503 L22.9305699,37.1471503 Z M28.6948187,37.1471503 L27.4927461,38.2891192 L27.046114,38.2891192 L27.046114,37.1471503 L26.0927461,37.1471503 L26.0927461,40.2559585 L27.046114,40.2559585 L27.046114,39.0621762 L27.4927461,39.0621762 L28.6948187,40.2559585 L29.9917098,40.2559585 L28.3082902,38.6668394 L29.9917098,37.1471503 L28.6948187,37.1471503 Z M34.0678756,37.1471503 L36.9430052,37.1471503 C37.6772021,37.1471503 37.8756477,37.5098446 37.8756477,38.0699482 L37.8756477,38.2678756 C37.8756477,38.6823834 37.7813472,38.9290155 37.3435233,39.0321244 L37.3435233,39.0404145 C37.626943,39.092228 37.861658,39.2165803 37.861658,39.7274611 L37.861658,40.2559585 L36.9103627,40.2559585 L36.9103627,39.8823834 C36.9103627,39.5559585 36.815544,39.4487047 36.5196891,39.4487047 L35.0207254,39.4487047 L35.0207254,40.2559585 L34.0678756,40.2559585 L34.0678756,37.1471503 Z M35.0207254,38.6756477 L36.5968912,38.6756477 C36.8559585,38.6756477 36.9487047,38.5720207 36.9487047,38.3492228 L36.9487047,38.2455959 C36.9487047,37.9709845 36.811399,37.919171 36.5108808,37.919171 L35.0207254,37.919171 L35.0207254,38.6756477 L35.0207254,38.6756477 Z M38.4041451,37.6476684 L38.3243523,37.6476684 L38.3243523,37.2098446 L38.1735751,37.2098446 L38.1735751,37.1466321 L38.5564767,37.1466321 L38.5564767,37.2098446 L38.4041451,37.2098446 L38.4041451,37.6476684 Z M39.1393782,37.6476684 L39.061658,37.6476684 L39.061658,37.2487047 L38.9025907,37.6476684 L38.846114,37.6476684 L38.6860104,37.2487047 L38.6860104,37.6476684 L38.615544,37.6476684 L38.615544,37.1466321 L38.7264249,37.1466321 L38.8818653,37.5264249 L39.0326425,37.1466321 L39.1414508,37.1466321 L39.1393782,37.6476684 L39.1393782,37.6476684 Z" id="Shape" fill="#FFFFFF"></path>
        </g>
        <rect id="Rectangle" fill="#000000" x="-2" y="-1" width="5" height="50"></rect>
    </g>
</svg>