<svg width="54" height="54" xmlns="http://www.w3.org/2000/svg"><g id="FandangoNow" fill="none" fill-rule="evenodd"><g id="image-(1)" fill-rule="nonzero"><g id="Group"><path d="M46.6454266 15.1655844L42.588036.02438362.04213187 11.4244795l4.0594945 15.1482138.0014026.0069051c2.5442038.5192847 4.70792607 2.4248212 5.42557043 5.1036204.7174825 2.678961-.20316084 5.4104116-2.14656743 7.1328551l.0014026.0068512 4.05873923 15.1475125 42.5459041-11.4001499-4.0573906-15.1412547c-2.5572587-.5117862-4.7334965-2.4213687-5.4538381-5.1099321-.7202878-2.6892647.2093106-5.4310729 2.1685774-7.1535165" id="Path" fill="#F26526"/><path d="M30.7451508 15.781001l-12.5685674 3.3674745 2.5255924 9.4263177 12.5686214-3.3681758 2.524999 9.4262637-12.5673267 3.3681758 2.5255385 9.4263177-12.567974 3.3675824-3.0574466-11.4064615c1.8363776-2.2533806 2.6016564-5.3246374 1.7914945-8.3468032-.8086513-3.0207632-3.00760038-5.2984735-5.72389209-6.3317023L3.08215385 13.0895784 28.2188032 6.35462937l2.5263476 9.42637163z" id="Path" fill="#FFF"/></g></g></g></svg>