<svg width="54" height="54" xmlns="http://www.w3.org/2000/svg"><g id="target" fill="none" fill-rule="evenodd"><g id="image-(2)" fill="#C00" fill-rule="nonzero"><path d="M27.147949 44.4852551c-9.8135357 0-17.77757145-7.9513622-17.77757145-17.766551 0-9.8329592 7.96403575-17.77853573 17.77757145-17.77853573 9.8220765 0 17.7761939 7.94557653 17.7761939 17.77853573 0 9.8151888-7.9541174 17.766551-17.7761939 17.766551zm0-44.4220255C12.4362551.0632296.50625 11.9962653.50625 26.7187041c0 14.7111428 11.9300051 26.6404592 26.641699 26.6404592 14.7180306 0 26.6667704-11.9293164 26.6667704-26.6404592 0-14.7224388-11.9487398-26.6554745-26.6667704-26.6554745z" id="Shape"/><path d="M27.147949 17.5845765c-5.042801 0-9.1287551 4.0760357-9.1287551 9.1341276 0 5.0414235 4.0858163 9.1295816 9.1287551 9.1295816 5.0476224 0 9.1423928-4.0882959 9.1423928-9.1295816 0-5.0579541-4.0947704-9.1341276-9.1423928-9.1341276z" id="Shape"/></g></g></svg>