<svg width="54" height="54" xmlns="http://www.w3.org/2000/svg"><g id="Walmart" fill="none" fill-rule="evenodd"><g id="image" transform="translate(4 1)" fill="#FFC220" fill-rule="nonzero"><path d="M22.9968347 0c-1.964208 0-3.5254354 1.0834781-3.5254354 2.40249245l1.1928846 13.34223945c.1316842.8038425 1.1285408 1.4238954 2.3336691 1.4238954 1.2075082-.0015578 2.200881-.6210725 2.3353322-1.4238954l1.198562-13.34223945C26.5318472 1.08359139 24.9662614 0 22.9992433 0h-.0024086zM3.55747776 10.7025113c-1.01972395.0238992-2.17811407.7865087-2.91497165 2.0484517-.98545884 1.6803909-.8108358 3.5582515.34219233 4.2170506L13.2774143 22.622753c.7679399.2821337 1.8109183-.2565578 2.4148731-1.2850547.000086-.0001425-.0000832-.0004249 0-.0005665.6067649-1.0335725.5597973-2.1957043-.0789646-2.7111877L4.51085356 10.9339124c-.28834305-.164966-.61270031-.2391985-.95262741-.231234l-.00074839-.0001671zm38.87871394 0c-.3398411-.0079673-.6637109.066268-.9515091.231234L30.3807797 18.625777c-.6349799.5154551-.6820621 1.6776435-.0784026 2.7111877l.0005734.0005665c.6061914 1.0285026 1.6457863 1.5671827 2.4137548 1.2850547l12.2981639-5.6544562c1.1578167-.6587991 1.3237516-2.5365748.3449737-4.2170506-.7401837-1.2619713-1.900495-2.0245468-2.9201329-2.0484516l-.0035183-.0001162zM13.7366528 28.3057024c-.1590274-.0021242-.3132032.0221431-.4575467.0757874L.98639019 34.0294316c-1.15299946.6616881-1.3276225 2.5402568-.34219233 4.2224321.98247677 1.677077 2.71422685 2.4743769 3.86751305 1.8166824l11.10332949-7.6860839c.6388507-.5217711.6859903-1.6835914.0789646-2.7161442l.0050465.0022658c-.4907796-.8410593-1.2732284-1.3537953-1.9623729-1.363057l-.0000258.0001756zm18.5258119 0c-.6883416.0092617-1.4692421.5219978-1.961226 1.363057l.0044731-.0022658c-.6040408 1.0325529-.557274 2.1943731.0778435 2.7161442l11.1039029 7.6860839c1.1511357.6576945 2.8845775-.1395799 3.8715274-1.8166824.9787778-1.6822319.8128429-3.5608006-.3449737-4.222432l-12.2944363-5.6479419c-.144335-.0536443-.2981495-.0779258-.457002-.0757874l-.0001089-.0001756zm-9.2673504 5.5295506c-1.2030925.0014162-2.1976695.618835-2.3291673 1.4205816l-1.1928846 13.341673C19.4730624 49.9187311 21.0342611 51 22.9984978 51c1.9678783 0 3.5320304-1.0812972 3.5320304-2.4024924l-1.195666-13.341673c-.134454-.8017466-1.1278239-1.4190521-2.3353321-1.4205816h-.0044731.0000573z" id="Shape"/></g></g></svg>